<svg width="57" height="57" viewBox="0 0 57 57" fill="none" xmlns="http://www.w3.org/2000/svg">
<g clip-path="url(#clip0_140_37)">
<g filter="url(#filter0_d_140_37)">
<rect width="57" height="57" rx="28.5" fill="url(#paint0_linear_140_37)"/>
<path d="M28.485 15.5918C27.9512 15.5988 27.5201 16.0299 27.5131 16.5637V23.0434C27.5131 23.5802 27.9482 24.0153 28.485 24.0153C29.0218 24.0153 29.457 23.5802 29.457 23.0434V16.5637C29.45 16.0299 29.0189 15.5988 28.485 15.5918Z" fill="url(#paint1_linear_140_37)"/>
<path d="M28.485 33.7348C27.9512 33.7418 27.5201 34.1729 27.5131 34.7067V41.1864C27.5131 41.7232 27.9482 42.1583 28.485 42.1583C29.0218 42.1583 29.457 41.7232 29.457 41.1864V34.7067C29.45 34.1729 29.0189 33.7418 28.485 33.7348Z" fill="url(#paint2_linear_140_37)"/>
<path d="M22.2257 18.2355C21.9206 17.8335 21.361 17.7272 20.9298 17.9893C20.7174 18.138 20.5734 18.3655 20.5296 18.621C20.4858 18.8765 20.5459 19.139 20.6965 19.35L24.3381 24.6503C24.505 25.0014 24.8652 25.2192 25.2536 25.204C25.6421 25.1889 25.9841 24.9437 26.1233 24.5808C26.2625 24.2178 26.1719 23.8068 25.8932 23.5358L22.2257 18.2355Z" fill="url(#paint3_linear_140_37)"/>
<path d="M32.632 33.0998C32.3242 32.6596 31.7179 32.5523 31.2778 32.86C30.8376 33.1678 30.7302 33.7741 31.038 34.2143L34.7444 39.5146C35.0521 39.9548 35.6584 40.0621 36.0986 39.7544C36.5388 39.4466 36.6461 38.8403 36.3383 38.4001L32.632 33.0998Z" fill="url(#paint4_linear_140_37)"/>
<path d="M16.5884 25.5834L22.6793 27.7994C22.7865 27.8181 22.8961 27.8181 23.0033 27.7994C23.4213 27.7371 23.7511 27.4117 23.8192 26.9946C23.8872 26.5774 23.6779 26.1641 23.3013 25.9722L17.2493 23.7561C17.003 23.6473 16.7222 23.6471 16.4757 23.7556C16.2292 23.8641 16.0396 24.0712 15.9534 24.3264C15.8678 24.5772 15.8869 24.8519 16.0064 25.0885C16.1259 25.325 16.3357 25.5034 16.5884 25.5834Z" fill="url(#paint5_linear_140_37)"/>
<path d="M40.3816 32.1667L34.2908 29.9507C34.042 29.8504 33.7631 29.856 33.5185 29.9661C33.2739 30.0761 33.0848 30.2812 32.9949 30.5338C32.8907 30.7823 32.8943 31.0628 33.0049 31.3085C33.1154 31.5542 33.323 31.743 33.578 31.8298L39.7207 34.0588C39.8287 34.0989 39.9425 34.1208 40.0577 34.1236C40.4628 34.1217 40.8244 33.8686 40.9648 33.4886C41.0736 33.2369 41.0725 32.9512 40.9618 32.7003C40.8511 32.4494 40.6409 32.2561 40.3816 32.1667Z" fill="url(#paint6_linear_140_37)"/>
<path d="M23.7938 30.171C23.727 29.9217 23.5638 29.7091 23.3401 29.5803C23.1164 29.4514 22.8507 29.4168 22.6015 29.4841L16.3422 31.117C15.857 31.2306 15.5363 31.6928 15.5998 32.1871C15.6632 32.6814 16.0902 33.0476 16.5884 33.035C16.6743 33.0476 16.7617 33.0476 16.8476 33.035L23.1069 31.3632C23.6215 31.2181 23.9264 30.689 23.7938 30.171Z" fill="url(#paint7_linear_140_37)"/>
<path d="M33.1763 27.5791C33.2966 28.0036 33.6812 28.2986 34.1223 28.3048C34.2039 28.3173 34.2869 28.3173 34.3685 28.3048L40.6279 26.6331C40.9851 26.5677 41.2761 26.3085 41.3823 25.9612C41.4884 25.6139 41.3921 25.2363 41.1325 24.9823C40.8729 24.7283 40.4933 24.6403 40.1484 24.754L33.889 26.4258C33.3825 26.5595 33.0693 27.0663 33.1763 27.5791Z" fill="url(#paint8_linear_140_37)"/>
<path d="M23.9882 32.7628L19.8282 37.6874C19.6111 37.9763 19.5722 38.3618 19.7273 38.6883C19.8824 39.0148 20.2058 39.2282 20.5669 39.2425C20.8575 39.2458 21.134 39.1171 21.3185 38.8926L25.4785 33.9292C25.6459 33.7319 25.7277 33.4759 25.7059 33.2181C25.684 32.9602 25.5601 32.7217 25.3618 32.5555C24.9231 32.2422 24.3149 32.334 23.9882 32.7628Z" fill="url(#paint9_linear_140_37)"/>
<path d="M32.2303 25.3761C32.5261 25.3644 32.8014 25.2219 32.9819 24.9873L37.1418 20.0627C37.4468 19.6664 37.396 19.1023 37.0252 18.7668C36.8279 18.5994 36.5719 18.5175 36.3141 18.5394C36.0562 18.5613 35.8178 18.6851 35.6515 18.8835L31.4916 23.7821C31.3241 23.9794 31.2423 24.2353 31.2642 24.4932C31.2861 24.751 31.4099 24.9895 31.6082 25.1557C31.7818 25.3025 32.003 25.3808 32.2303 25.3761Z" fill="url(#paint10_linear_140_37)"/>
<path d="M39.4079 28.687C39.7074 26.3614 39.2727 24.0004 38.1647 21.9339C37.0567 19.8675 35.3307 18.1988 33.228 17.1613C31.1253 16.1238 28.7509 15.7692 26.4368 16.1471C24.1227 16.525 21.9845 17.6165 20.3211 19.2691C18.6577 20.9217 17.5522 23.0527 17.1592 25.3643C16.7662 27.6759 17.1052 30.0526 18.129 32.162C19.1528 34.2715 20.8101 36.0083 22.8693 37.1298C24.9285 38.2513 27.2866 38.7013 29.6141 38.417" stroke="#CAA2A2" stroke-width="2.5" stroke-linecap="round" stroke-linejoin="round"/>
<path d="M28.2504 20.9995V27.2495L30.7504 29.7495M40.7504 39.7495L34.5004 33.4995M34.5004 39.7495L40.7504 33.4995" stroke="#CAA2A2" stroke-width="2.5" stroke-linecap="round" stroke-linejoin="round"/>
</g>
</g>
<defs>
<filter id="filter0_d_140_37" x="-4" y="0" width="65" height="65" filterUnits="userSpaceOnUse" color-interpolation-filters="sRGB">
<feFlood flood-opacity="0" result="BackgroundImageFix"/>
<feColorMatrix in="SourceAlpha" type="matrix" values="0 0 0 0 0 0 0 0 0 0 0 0 0 0 0 0 0 0 127 0" result="hardAlpha"/>
<feOffset dy="4"/>
<feGaussianBlur stdDeviation="2"/>
<feComposite in2="hardAlpha" operator="out"/>
<feColorMatrix type="matrix" values="0 0 0 0 0 0 0 0 0 0 0 0 0 0 0 0 0 0 0.25 0"/>
<feBlend mode="normal" in2="BackgroundImageFix" result="effect1_dropShadow_140_37"/>
<feBlend mode="normal" in="SourceGraphic" in2="effect1_dropShadow_140_37" result="shape"/>
</filter>
<linearGradient id="paint0_linear_140_37" x1="-0.674084" y1="28.8358" x2="55.9215" y2="28.8358" gradientUnits="userSpaceOnUse">
<stop stop-color="#7F1E10"/>
<stop offset="0.1" stop-color="#7F1E10"/>
<stop offset="0.18" stop-color="#821E10"/>
<stop offset="1" stop-color="#A21E11"/>
</linearGradient>
<linearGradient id="paint1_linear_140_37" x1="15.2863" y1="29.0316" x2="40.936" y2="29.0316" gradientUnits="userSpaceOnUse">
<stop stop-color="#7F1E10"/>
<stop offset="0.1" stop-color="#7F1E10"/>
<stop offset="0.18" stop-color="#821E10"/>
<stop offset="1" stop-color="#A21E11"/>
</linearGradient>
<linearGradient id="paint2_linear_140_37" x1="15.2863" y1="29.0316" x2="40.936" y2="29.0316" gradientUnits="userSpaceOnUse">
<stop stop-color="#7F1E10"/>
<stop offset="0.1" stop-color="#7F1E10"/>
<stop offset="0.18" stop-color="#821E10"/>
<stop offset="1" stop-color="#A21E11"/>
</linearGradient>
<linearGradient id="paint3_linear_140_37" x1="15.2863" y1="29.0316" x2="40.936" y2="29.0316" gradientUnits="userSpaceOnUse">
<stop stop-color="#7F1E10"/>
<stop offset="0.1" stop-color="#7F1E10"/>
<stop offset="0.18" stop-color="#821E10"/>
<stop offset="1" stop-color="#A21E11"/>
</linearGradient>
<linearGradient id="paint4_linear_140_37" x1="15.2863" y1="29.0316" x2="40.936" y2="29.0316" gradientUnits="userSpaceOnUse">
<stop stop-color="#7F1E10"/>
<stop offset="0.1" stop-color="#7F1E10"/>
<stop offset="0.18" stop-color="#821E10"/>
<stop offset="1" stop-color="#A21E11"/>
</linearGradient>
<linearGradient id="paint5_linear_140_37" x1="15.2863" y1="29.0316" x2="40.936" y2="29.0316" gradientUnits="userSpaceOnUse">
<stop stop-color="#7F1E10"/>
<stop offset="0.1" stop-color="#7F1E10"/>
<stop offset="0.18" stop-color="#821E10"/>
<stop offset="1" stop-color="#A21E11"/>
</linearGradient>
<linearGradient id="paint6_linear_140_37" x1="15.2863" y1="29.0316" x2="40.936" y2="29.0316" gradientUnits="userSpaceOnUse">
<stop stop-color="#7F1E10"/>
<stop offset="0.1" stop-color="#7F1E10"/>
<stop offset="0.18" stop-color="#821E10"/>
<stop offset="1" stop-color="#A21E11"/>
</linearGradient>
<linearGradient id="paint7_linear_140_37" x1="15.2863" y1="29.0316" x2="40.936" y2="29.0316" gradientUnits="userSpaceOnUse">
<stop stop-color="#7F1E10"/>
<stop offset="0.1" stop-color="#7F1E10"/>
<stop offset="0.18" stop-color="#821E10"/>
<stop offset="1" stop-color="#A21E11"/>
</linearGradient>
<linearGradient id="paint8_linear_140_37" x1="15.2863" y1="29.0316" x2="40.936" y2="29.0316" gradientUnits="userSpaceOnUse">
<stop stop-color="#7F1E10"/>
<stop offset="0.1" stop-color="#7F1E10"/>
<stop offset="0.18" stop-color="#821E10"/>
<stop offset="1" stop-color="#A21E11"/>
</linearGradient>
<linearGradient id="paint9_linear_140_37" x1="15.2863" y1="29.0316" x2="40.936" y2="29.0316" gradientUnits="userSpaceOnUse">
<stop stop-color="#7F1E10"/>
<stop offset="0.1" stop-color="#7F1E10"/>
<stop offset="0.18" stop-color="#821E10"/>
<stop offset="1" stop-color="#A21E11"/>
</linearGradient>
<linearGradient id="paint10_linear_140_37" x1="15.2863" y1="29.0316" x2="40.936" y2="29.0316" gradientUnits="userSpaceOnUse">
<stop stop-color="#7F1E10"/>
<stop offset="0.1" stop-color="#7F1E10"/>
<stop offset="0.18" stop-color="#821E10"/>
<stop offset="1" stop-color="#A21E11"/>
</linearGradient>
<clipPath id="clip0_140_37">
<rect width="57" height="57" rx="28.5" fill="white"/>
</clipPath>
</defs>
</svg>
