<svg width="65" height="65" viewBox="0 0 65 65" fill="none" xmlns="http://www.w3.org/2000/svg">
<g filter="url(#filter0_d_140_43)">
<rect x="4" width="57" height="57" rx="28.5" fill="url(#paint0_linear_140_43)"/>
<path d="M33.485 15.5918C32.9512 15.5988 32.5201 16.0299 32.5131 16.5637V23.0434C32.5131 23.5802 32.9482 24.0153 33.485 24.0153C34.0218 24.0153 34.457 23.5802 34.457 23.0434V16.5637C34.45 16.0299 34.0189 15.5988 33.485 15.5918Z" fill="url(#paint1_linear_140_43)"/>
<path d="M33.485 33.7348C32.9512 33.7418 32.5201 34.1729 32.5131 34.7067V41.1864C32.5131 41.7232 32.9482 42.1583 33.485 42.1583C34.0218 42.1583 34.457 41.7232 34.457 41.1864V34.7067C34.45 34.1729 34.0189 33.7418 33.485 33.7348Z" fill="url(#paint2_linear_140_43)"/>
<path d="M27.2257 18.2355C26.9206 17.8335 26.361 17.7272 25.9298 17.9893C25.7174 18.138 25.5734 18.3655 25.5296 18.621C25.4858 18.8765 25.5459 19.139 25.6965 19.35L29.3381 24.6503C29.505 25.0014 29.8652 25.2192 30.2536 25.204C30.6421 25.1889 30.9841 24.9437 31.1233 24.5808C31.2625 24.2178 31.1719 23.8068 30.8932 23.5358L27.2257 18.2355Z" fill="url(#paint3_linear_140_43)"/>
<path d="M37.632 33.0998C37.3242 32.6596 36.7179 32.5523 36.2778 32.86C35.8376 33.1678 35.7302 33.7741 36.038 34.2143L39.7444 39.5146C40.0521 39.9548 40.6584 40.0621 41.0986 39.7544C41.5388 39.4466 41.6461 38.8403 41.3383 38.4001L37.632 33.0998Z" fill="url(#paint4_linear_140_43)"/>
<path d="M21.5884 25.5834L27.6793 27.7994C27.7865 27.8181 27.8961 27.8181 28.0033 27.7994C28.4213 27.7371 28.7511 27.4117 28.8192 26.9946C28.8872 26.5774 28.6779 26.1641 28.3013 25.9722L22.2493 23.7561C22.003 23.6473 21.7222 23.6471 21.4757 23.7556C21.2292 23.8641 21.0396 24.0712 20.9534 24.3264C20.8678 24.5772 20.8869 24.8519 21.0064 25.0885C21.1259 25.325 21.3357 25.5034 21.5884 25.5834Z" fill="url(#paint5_linear_140_43)"/>
<path d="M45.3816 32.1667L39.2908 29.9507C39.042 29.8504 38.7631 29.856 38.5185 29.9661C38.2739 30.0761 38.0848 30.2812 37.9949 30.5338C37.8907 30.7823 37.8943 31.0628 38.0049 31.3085C38.1154 31.5542 38.323 31.743 38.578 31.8298L44.7207 34.0588C44.8287 34.0989 44.9425 34.1208 45.0577 34.1236C45.4628 34.1217 45.8244 33.8686 45.9648 33.4886C46.0736 33.2369 46.0725 32.9512 45.9618 32.7003C45.8511 32.4494 45.6409 32.2561 45.3816 32.1667Z" fill="url(#paint6_linear_140_43)"/>
<path d="M28.7938 30.171C28.727 29.9217 28.5638 29.7091 28.3401 29.5803C28.1164 29.4514 27.8507 29.4168 27.6015 29.4841L21.3422 31.117C20.857 31.2306 20.5363 31.6928 20.5998 32.1871C20.6632 32.6814 21.0902 33.0476 21.5884 33.035C21.6743 33.0476 21.7617 33.0476 21.8476 33.035L28.1069 31.3632C28.6215 31.2181 28.9264 30.689 28.7938 30.171Z" fill="url(#paint7_linear_140_43)"/>
<path d="M38.1763 27.5791C38.2966 28.0036 38.6812 28.2986 39.1223 28.3048C39.2039 28.3173 39.2869 28.3173 39.3685 28.3048L45.6279 26.6331C45.9851 26.5677 46.2761 26.3085 46.3823 25.9612C46.4884 25.6139 46.3921 25.2363 46.1325 24.9823C45.8729 24.7283 45.4933 24.6403 45.1484 24.754L38.889 26.4258C38.3825 26.5595 38.0693 27.0663 38.1763 27.5791Z" fill="url(#paint8_linear_140_43)"/>
<path d="M28.9882 32.7628L24.8282 37.6874C24.6111 37.9763 24.5722 38.3618 24.7273 38.6883C24.8824 39.0148 25.2058 39.2282 25.5669 39.2425C25.8575 39.2458 26.134 39.1171 26.3185 38.8926L30.4785 33.9292C30.6459 33.7319 30.7277 33.4759 30.7059 33.2181C30.684 32.9602 30.5601 32.7217 30.3618 32.5555C29.9231 32.2422 29.3149 32.334 28.9882 32.7628Z" fill="url(#paint9_linear_140_43)"/>
<path d="M37.2303 25.3761C37.5261 25.3644 37.8014 25.2219 37.9819 24.9873L42.1418 20.0627C42.4468 19.6664 42.396 19.1023 42.0252 18.7668C41.8279 18.5994 41.5719 18.5175 41.3141 18.5394C41.0562 18.5613 40.8178 18.6851 40.6515 18.8835L36.4916 23.7821C36.3241 23.9794 36.2423 24.2353 36.2642 24.4932C36.2861 24.751 36.4099 24.9895 36.6082 25.1557C36.7818 25.3025 37.003 25.3808 37.2303 25.3761Z" fill="url(#paint10_linear_140_43)"/>
<path fill-rule="evenodd" clip-rule="evenodd" d="M22.8125 35.625C22.8125 36.3709 23.1088 37.0863 23.6363 37.6137C24.1637 38.1412 24.8791 38.4375 25.625 38.4375H40.625C41.3709 38.4375 42.0863 38.1412 42.6137 37.6137C43.1412 37.0863 43.4375 36.3709 43.4375 35.625V20.625C43.4375 19.8791 43.1412 19.1637 42.6137 18.6363C42.0863 18.1088 41.3709 17.8125 40.625 17.8125H25.625C24.8791 17.8125 24.1637 18.1088 23.6363 18.6363C23.1088 19.1637 22.8125 19.8791 22.8125 20.625V35.625ZM25.625 41.25C24.1332 41.25 22.7024 40.6574 21.6475 39.6025C20.5926 38.5476 20 37.1168 20 35.625V20.625C20 19.1332 20.5926 17.7024 21.6475 16.6475C22.7024 15.5926 24.1332 15 25.625 15H40.625C42.1168 15 43.5476 15.5926 44.6025 16.6475C45.6574 17.7024 46.25 19.1332 46.25 20.625V35.625C46.25 37.1168 45.6574 38.5476 44.6025 39.6025C43.5476 40.6574 42.1168 41.25 40.625 41.25H25.625ZM35 33.2812C35 33.7785 34.8025 34.2554 34.4508 34.6071C34.0992 34.9587 33.6223 35.1562 33.125 35.1562C32.6277 35.1562 32.1508 34.9587 31.7992 34.6071C31.4475 34.2554 31.25 33.7785 31.25 33.2812C31.25 32.784 31.4475 32.3071 31.7992 31.9554C32.1508 31.6038 32.6277 31.4062 33.125 31.4062C33.6223 31.4062 34.0992 31.6038 34.4508 31.9554C34.8025 32.3071 35 32.784 35 33.2812ZM34.5312 22.5C34.5312 22.127 34.3831 21.7694 34.1194 21.5056C33.8556 21.2419 33.498 21.0938 33.125 21.0938C32.752 21.0938 32.3944 21.2419 32.1306 21.5056C31.8669 21.7694 31.7188 22.127 31.7188 22.5V28.125C31.7188 28.498 31.8669 28.8556 32.1306 29.1194C32.3944 29.3831 32.752 29.5312 33.125 29.5312C33.498 29.5312 33.8556 29.3831 34.1194 29.1194C34.3831 28.8556 34.5312 28.498 34.5312 28.125V22.5Z" fill="#CAA2A2"/>
</g>
<defs>
<filter id="filter0_d_140_43" x="0" y="0" width="65" height="65" filterUnits="userSpaceOnUse" color-interpolation-filters="sRGB">
<feFlood flood-opacity="0" result="BackgroundImageFix"/>
<feColorMatrix in="SourceAlpha" type="matrix" values="0 0 0 0 0 0 0 0 0 0 0 0 0 0 0 0 0 0 127 0" result="hardAlpha"/>
<feOffset dy="4"/>
<feGaussianBlur stdDeviation="2"/>
<feComposite in2="hardAlpha" operator="out"/>
<feColorMatrix type="matrix" values="0 0 0 0 0 0 0 0 0 0 0 0 0 0 0 0 0 0 0.25 0"/>
<feBlend mode="normal" in2="BackgroundImageFix" result="effect1_dropShadow_140_43"/>
<feBlend mode="normal" in="SourceGraphic" in2="effect1_dropShadow_140_43" result="shape"/>
</filter>
<linearGradient id="paint0_linear_140_43" x1="3.32592" y1="28.8358" x2="59.9215" y2="28.8358" gradientUnits="userSpaceOnUse">
<stop stop-color="#7F1E10"/>
<stop offset="0.1" stop-color="#7F1E10"/>
<stop offset="0.18" stop-color="#821E10"/>
<stop offset="1" stop-color="#A21E11"/>
</linearGradient>
<linearGradient id="paint1_linear_140_43" x1="20.2863" y1="29.0316" x2="45.936" y2="29.0316" gradientUnits="userSpaceOnUse">
<stop stop-color="#7F1E10"/>
<stop offset="0.1" stop-color="#7F1E10"/>
<stop offset="0.18" stop-color="#821E10"/>
<stop offset="1" stop-color="#A21E11"/>
</linearGradient>
<linearGradient id="paint2_linear_140_43" x1="20.2863" y1="29.0316" x2="45.936" y2="29.0316" gradientUnits="userSpaceOnUse">
<stop stop-color="#7F1E10"/>
<stop offset="0.1" stop-color="#7F1E10"/>
<stop offset="0.18" stop-color="#821E10"/>
<stop offset="1" stop-color="#A21E11"/>
</linearGradient>
<linearGradient id="paint3_linear_140_43" x1="20.2863" y1="29.0316" x2="45.936" y2="29.0316" gradientUnits="userSpaceOnUse">
<stop stop-color="#7F1E10"/>
<stop offset="0.1" stop-color="#7F1E10"/>
<stop offset="0.18" stop-color="#821E10"/>
<stop offset="1" stop-color="#A21E11"/>
</linearGradient>
<linearGradient id="paint4_linear_140_43" x1="20.2863" y1="29.0316" x2="45.936" y2="29.0316" gradientUnits="userSpaceOnUse">
<stop stop-color="#7F1E10"/>
<stop offset="0.1" stop-color="#7F1E10"/>
<stop offset="0.18" stop-color="#821E10"/>
<stop offset="1" stop-color="#A21E11"/>
</linearGradient>
<linearGradient id="paint5_linear_140_43" x1="20.2863" y1="29.0316" x2="45.936" y2="29.0316" gradientUnits="userSpaceOnUse">
<stop stop-color="#7F1E10"/>
<stop offset="0.1" stop-color="#7F1E10"/>
<stop offset="0.18" stop-color="#821E10"/>
<stop offset="1" stop-color="#A21E11"/>
</linearGradient>
<linearGradient id="paint6_linear_140_43" x1="20.2863" y1="29.0316" x2="45.936" y2="29.0316" gradientUnits="userSpaceOnUse">
<stop stop-color="#7F1E10"/>
<stop offset="0.1" stop-color="#7F1E10"/>
<stop offset="0.18" stop-color="#821E10"/>
<stop offset="1" stop-color="#A21E11"/>
</linearGradient>
<linearGradient id="paint7_linear_140_43" x1="20.2863" y1="29.0316" x2="45.936" y2="29.0316" gradientUnits="userSpaceOnUse">
<stop stop-color="#7F1E10"/>
<stop offset="0.1" stop-color="#7F1E10"/>
<stop offset="0.18" stop-color="#821E10"/>
<stop offset="1" stop-color="#A21E11"/>
</linearGradient>
<linearGradient id="paint8_linear_140_43" x1="20.2863" y1="29.0316" x2="45.936" y2="29.0316" gradientUnits="userSpaceOnUse">
<stop stop-color="#7F1E10"/>
<stop offset="0.1" stop-color="#7F1E10"/>
<stop offset="0.18" stop-color="#821E10"/>
<stop offset="1" stop-color="#A21E11"/>
</linearGradient>
<linearGradient id="paint9_linear_140_43" x1="20.2863" y1="29.0316" x2="45.936" y2="29.0316" gradientUnits="userSpaceOnUse">
<stop stop-color="#7F1E10"/>
<stop offset="0.1" stop-color="#7F1E10"/>
<stop offset="0.18" stop-color="#821E10"/>
<stop offset="1" stop-color="#A21E11"/>
</linearGradient>
<linearGradient id="paint10_linear_140_43" x1="20.2863" y1="29.0316" x2="45.936" y2="29.0316" gradientUnits="userSpaceOnUse">
<stop stop-color="#7F1E10"/>
<stop offset="0.1" stop-color="#7F1E10"/>
<stop offset="0.18" stop-color="#821E10"/>
<stop offset="1" stop-color="#A21E11"/>
</linearGradient>
</defs>
</svg>
