<svg width="65" height="65" viewBox="0 0 65 65" fill="none" xmlns="http://www.w3.org/2000/svg">
<g filter="url(#filter0_d_140_46)">
<rect x="4" width="57" height="57" rx="28.5" fill="url(#paint0_linear_140_46)"/>
<path d="M32.485 15.5918C31.9512 15.5988 31.5201 16.0299 31.5131 16.5637V23.0434C31.5131 23.5802 31.9482 24.0153 32.485 24.0153C33.0218 24.0153 33.457 23.5802 33.457 23.0434V16.5637C33.45 16.0299 33.0189 15.5988 32.485 15.5918Z" fill="url(#paint1_linear_140_46)"/>
<path d="M32.485 33.7348C31.9512 33.7418 31.5201 34.1729 31.5131 34.7067V41.1864C31.5131 41.7232 31.9482 42.1583 32.485 42.1583C33.0218 42.1583 33.457 41.7232 33.457 41.1864V34.7067C33.45 34.1729 33.0189 33.7418 32.485 33.7348Z" fill="url(#paint2_linear_140_46)"/>
<path d="M26.2257 18.2355C25.9206 17.8335 25.361 17.7272 24.9298 17.9893C24.7174 18.138 24.5734 18.3655 24.5296 18.621C24.4858 18.8765 24.5459 19.139 24.6965 19.35L28.3381 24.6503C28.505 25.0014 28.8652 25.2192 29.2536 25.204C29.6421 25.1889 29.9841 24.9437 30.1233 24.5808C30.2625 24.2178 30.1719 23.8068 29.8932 23.5358L26.2257 18.2355Z" fill="url(#paint3_linear_140_46)"/>
<path d="M36.632 33.0998C36.3242 32.6596 35.7179 32.5523 35.2778 32.86C34.8376 33.1678 34.7302 33.7741 35.038 34.2143L38.7444 39.5146C39.0521 39.9548 39.6584 40.0621 40.0986 39.7544C40.5388 39.4466 40.6461 38.8403 40.3383 38.4001L36.632 33.0998Z" fill="url(#paint4_linear_140_46)"/>
<path d="M20.5884 25.5834L26.6793 27.7994C26.7865 27.8181 26.8961 27.8181 27.0033 27.7994C27.4213 27.7371 27.7511 27.4117 27.8192 26.9946C27.8872 26.5774 27.6779 26.1641 27.3013 25.9722L21.2493 23.7561C21.003 23.6473 20.7222 23.6471 20.4757 23.7556C20.2292 23.8641 20.0396 24.0712 19.9534 24.3264C19.8678 24.5772 19.8869 24.8519 20.0064 25.0885C20.1259 25.325 20.3357 25.5034 20.5884 25.5834Z" fill="url(#paint5_linear_140_46)"/>
<path d="M44.3816 32.1667L38.2908 29.9507C38.042 29.8504 37.7631 29.856 37.5185 29.9661C37.2739 30.0761 37.0848 30.2812 36.9949 30.5338C36.8907 30.7823 36.8943 31.0628 37.0049 31.3085C37.1154 31.5542 37.323 31.743 37.578 31.8298L43.7207 34.0588C43.8287 34.0989 43.9425 34.1208 44.0577 34.1236C44.4628 34.1217 44.8244 33.8686 44.9648 33.4886C45.0736 33.2369 45.0725 32.9512 44.9618 32.7003C44.8511 32.4494 44.6409 32.2561 44.3816 32.1667Z" fill="url(#paint6_linear_140_46)"/>
<path d="M27.7938 30.171C27.727 29.9217 27.5638 29.7091 27.3401 29.5803C27.1164 29.4514 26.8507 29.4168 26.6015 29.4841L20.3422 31.117C19.857 31.2306 19.5363 31.6928 19.5998 32.1871C19.6632 32.6814 20.0902 33.0476 20.5884 33.035C20.6743 33.0476 20.7617 33.0476 20.8476 33.035L27.1069 31.3632C27.6215 31.2181 27.9264 30.689 27.7938 30.171Z" fill="url(#paint7_linear_140_46)"/>
<path d="M37.1763 27.5791C37.2966 28.0036 37.6812 28.2986 38.1223 28.3048C38.2039 28.3173 38.2869 28.3173 38.3685 28.3048L44.6279 26.6331C44.9851 26.5677 45.2761 26.3085 45.3823 25.9612C45.4884 25.6139 45.3921 25.2363 45.1325 24.9823C44.8729 24.7283 44.4933 24.6403 44.1484 24.754L37.889 26.4258C37.3825 26.5595 37.0693 27.0663 37.1763 27.5791Z" fill="url(#paint8_linear_140_46)"/>
<path d="M27.9882 32.7628L23.8282 37.6874C23.6111 37.9763 23.5722 38.3618 23.7273 38.6883C23.8824 39.0148 24.2058 39.2282 24.5669 39.2425C24.8575 39.2458 25.134 39.1171 25.3185 38.8926L29.4785 33.9292C29.6459 33.7319 29.7277 33.4759 29.7059 33.2181C29.684 32.9602 29.5601 32.7217 29.3618 32.5555C28.9231 32.2422 28.3149 32.334 27.9882 32.7628Z" fill="url(#paint9_linear_140_46)"/>
<path d="M36.2303 25.3761C36.5261 25.3644 36.8014 25.2219 36.9819 24.9873L41.1418 20.0627C41.4468 19.6664 41.396 19.1023 41.0252 18.7668C40.8279 18.5994 40.5719 18.5175 40.3141 18.5394C40.0562 18.5613 39.8178 18.6851 39.6515 18.8835L35.4916 23.7821C35.3241 23.9794 35.2423 24.2353 35.2642 24.4932C35.2861 24.751 35.4099 24.9895 35.6082 25.1557C35.7818 25.3025 36.003 25.3808 36.2303 25.3761Z" fill="url(#paint10_linear_140_46)"/>
<path d="M41.2551 21.0051H37.5051V19.7551C37.5051 19.0921 37.2417 18.4562 36.7729 17.9873C36.304 17.5185 35.6682 17.2551 35.0051 17.2551H30.0051C29.7458 17.254 29.488 17.2962 29.2426 17.3801C29.0853 17.431 28.9397 17.5126 28.8141 17.6202C28.6886 17.7278 28.5856 17.8592 28.5112 18.0069C28.4368 18.1545 28.3924 18.3154 28.3807 18.4804C28.3689 18.6453 28.3899 18.8109 28.4426 18.9676C28.5482 19.2772 28.771 19.5331 29.0631 19.6803C29.3552 19.8276 29.6934 19.8544 30.0051 19.7551H35.0051V21.0051H33.3301C32.9986 21.0051 32.6807 21.1368 32.4462 21.3712C32.2118 21.6057 32.0801 21.9236 32.0801 22.2551C32.0801 22.5866 32.2118 22.9046 32.4462 23.139C32.6807 23.3734 32.9986 23.5051 33.3301 23.5051H41.2551C41.5866 23.5051 41.9046 23.6368 42.139 23.8712C42.3734 24.1057 42.5051 24.4236 42.5051 24.7551V26.3551L39.2926 27.4301C39.1364 27.4823 38.9921 27.5648 38.8679 27.673C38.7437 27.7811 38.6421 27.9127 38.5689 28.0602C38.4958 28.2077 38.4525 28.3682 38.4415 28.5325C38.4305 28.6968 38.4522 28.8617 38.5051 29.0176C38.589 29.2659 38.7487 29.4815 38.9618 29.6341C39.1749 29.7866 39.4306 29.8683 39.6926 29.8676C39.8282 29.8651 39.9628 29.8441 40.0926 29.8051L42.5051 28.9926V32.6801C42.5051 33.0116 42.6368 33.3296 42.8712 33.564C43.1057 33.7984 43.4236 33.9301 43.7551 33.9301C44.0866 33.9301 44.4046 33.7984 44.639 33.564C44.8734 33.3296 45.0051 33.0116 45.0051 32.6801V24.7551C45.0051 23.7606 44.61 22.8067 43.9068 22.1035C43.2035 21.4002 42.2497 21.0051 41.2551 21.0051ZM22.1426 16.3676C22.0261 16.2511 21.8877 16.1586 21.7354 16.0955C21.5831 16.0325 21.4199 16 21.2551 16C21.0903 16 20.9271 16.0325 20.7748 16.0955C20.6225 16.1586 20.4842 16.2511 20.3676 16.3676C20.1322 16.603 20 16.9222 20 17.2551C20 17.588 20.1322 17.9072 20.3676 18.1426L23.2801 21.0051C22.37 21.1213 21.534 21.5671 20.9305 22.2582C20.327 22.9493 19.9977 23.8376 20.0051 24.7551V36.0051C20.0051 36.9997 20.4002 37.9535 21.1035 38.6568C21.8067 39.36 22.7606 39.7551 23.7551 39.7551H41.2551C41.4777 39.7494 41.6994 39.7243 41.9176 39.6801L42.8676 40.6426C42.9838 40.7598 43.1221 40.8528 43.2744 40.9162C43.4267 40.9797 43.5901 41.0124 43.7551 41.0124C43.9201 41.0124 44.0835 40.9797 44.2358 40.9162C44.3882 40.8528 44.5264 40.7598 44.6426 40.6426C44.7598 40.5264 44.8528 40.3882 44.9162 40.2358C44.9797 40.0835 45.0124 39.9201 45.0124 39.7551C45.0124 39.5901 44.9797 39.4267 44.9162 39.2744C44.8528 39.1221 44.7598 38.9838 44.6426 38.8676L22.1426 16.3676ZM22.5051 24.7551C22.5051 24.4236 22.6368 24.1057 22.8712 23.8712C23.1057 23.6368 23.4236 23.5051 23.7551 23.5051H25.7426L30.7426 28.5051H28.9551L22.5051 26.3551V24.7551ZM23.7551 37.2551C23.4236 37.2551 23.1057 37.1234 22.8712 36.889C22.6368 36.6546 22.5051 36.3366 22.5051 36.0051V28.9926L28.3551 31.0051C28.4878 31.0231 28.6224 31.0231 28.7551 31.0051H33.2426L39.4926 37.2551H23.7551Z" fill="#CAA2A2"/>
</g>
<defs>
<filter id="filter0_d_140_46" x="0" y="0" width="65" height="65" filterUnits="userSpaceOnUse" color-interpolation-filters="sRGB">
<feFlood flood-opacity="0" result="BackgroundImageFix"/>
<feColorMatrix in="SourceAlpha" type="matrix" values="0 0 0 0 0 0 0 0 0 0 0 0 0 0 0 0 0 0 127 0" result="hardAlpha"/>
<feOffset dy="4"/>
<feGaussianBlur stdDeviation="2"/>
<feComposite in2="hardAlpha" operator="out"/>
<feColorMatrix type="matrix" values="0 0 0 0 0 0 0 0 0 0 0 0 0 0 0 0 0 0 0.25 0"/>
<feBlend mode="normal" in2="BackgroundImageFix" result="effect1_dropShadow_140_46"/>
<feBlend mode="normal" in="SourceGraphic" in2="effect1_dropShadow_140_46" result="shape"/>
</filter>
<linearGradient id="paint0_linear_140_46" x1="3.32592" y1="28.8358" x2="59.9215" y2="28.8358" gradientUnits="userSpaceOnUse">
<stop stop-color="#7F1E10"/>
<stop offset="0.1" stop-color="#7F1E10"/>
<stop offset="0.18" stop-color="#821E10"/>
<stop offset="1" stop-color="#A21E11"/>
</linearGradient>
<linearGradient id="paint1_linear_140_46" x1="19.2863" y1="29.0316" x2="44.936" y2="29.0316" gradientUnits="userSpaceOnUse">
<stop stop-color="#7F1E10"/>
<stop offset="0.1" stop-color="#7F1E10"/>
<stop offset="0.18" stop-color="#821E10"/>
<stop offset="1" stop-color="#A21E11"/>
</linearGradient>
<linearGradient id="paint2_linear_140_46" x1="19.2863" y1="29.0316" x2="44.936" y2="29.0316" gradientUnits="userSpaceOnUse">
<stop stop-color="#7F1E10"/>
<stop offset="0.1" stop-color="#7F1E10"/>
<stop offset="0.18" stop-color="#821E10"/>
<stop offset="1" stop-color="#A21E11"/>
</linearGradient>
<linearGradient id="paint3_linear_140_46" x1="19.2863" y1="29.0316" x2="44.936" y2="29.0316" gradientUnits="userSpaceOnUse">
<stop stop-color="#7F1E10"/>
<stop offset="0.1" stop-color="#7F1E10"/>
<stop offset="0.18" stop-color="#821E10"/>
<stop offset="1" stop-color="#A21E11"/>
</linearGradient>
<linearGradient id="paint4_linear_140_46" x1="19.2863" y1="29.0316" x2="44.936" y2="29.0316" gradientUnits="userSpaceOnUse">
<stop stop-color="#7F1E10"/>
<stop offset="0.1" stop-color="#7F1E10"/>
<stop offset="0.18" stop-color="#821E10"/>
<stop offset="1" stop-color="#A21E11"/>
</linearGradient>
<linearGradient id="paint5_linear_140_46" x1="19.2863" y1="29.0316" x2="44.936" y2="29.0316" gradientUnits="userSpaceOnUse">
<stop stop-color="#7F1E10"/>
<stop offset="0.1" stop-color="#7F1E10"/>
<stop offset="0.18" stop-color="#821E10"/>
<stop offset="1" stop-color="#A21E11"/>
</linearGradient>
<linearGradient id="paint6_linear_140_46" x1="19.2863" y1="29.0316" x2="44.936" y2="29.0316" gradientUnits="userSpaceOnUse">
<stop stop-color="#7F1E10"/>
<stop offset="0.1" stop-color="#7F1E10"/>
<stop offset="0.18" stop-color="#821E10"/>
<stop offset="1" stop-color="#A21E11"/>
</linearGradient>
<linearGradient id="paint7_linear_140_46" x1="19.2863" y1="29.0316" x2="44.936" y2="29.0316" gradientUnits="userSpaceOnUse">
<stop stop-color="#7F1E10"/>
<stop offset="0.1" stop-color="#7F1E10"/>
<stop offset="0.18" stop-color="#821E10"/>
<stop offset="1" stop-color="#A21E11"/>
</linearGradient>
<linearGradient id="paint8_linear_140_46" x1="19.2863" y1="29.0316" x2="44.936" y2="29.0316" gradientUnits="userSpaceOnUse">
<stop stop-color="#7F1E10"/>
<stop offset="0.1" stop-color="#7F1E10"/>
<stop offset="0.18" stop-color="#821E10"/>
<stop offset="1" stop-color="#A21E11"/>
</linearGradient>
<linearGradient id="paint9_linear_140_46" x1="19.2863" y1="29.0316" x2="44.936" y2="29.0316" gradientUnits="userSpaceOnUse">
<stop stop-color="#7F1E10"/>
<stop offset="0.1" stop-color="#7F1E10"/>
<stop offset="0.18" stop-color="#821E10"/>
<stop offset="1" stop-color="#A21E11"/>
</linearGradient>
<linearGradient id="paint10_linear_140_46" x1="19.2863" y1="29.0316" x2="44.936" y2="29.0316" gradientUnits="userSpaceOnUse">
<stop stop-color="#7F1E10"/>
<stop offset="0.1" stop-color="#7F1E10"/>
<stop offset="0.18" stop-color="#821E10"/>
<stop offset="1" stop-color="#A21E11"/>
</linearGradient>
</defs>
</svg>
