<svg width="65" height="65" viewBox="0 0 65 65" fill="none" xmlns="http://www.w3.org/2000/svg">
<g filter="url(#filter0_d_0_242)">
<rect x="4" width="57" height="57" rx="28.5" fill="url(#paint0_linear_0_242)"/>
<path d="M32.4851 15.5918C31.9512 15.5988 31.5201 16.0299 31.5131 16.5637V23.0434C31.5131 23.5802 31.9483 24.0153 32.4851 24.0153C33.0219 24.0153 33.457 23.5802 33.457 23.0434V16.5637C33.4501 16.0299 33.019 15.5988 32.4851 15.5918Z" fill="url(#paint1_linear_0_242)"/>
<path d="M32.4851 33.7348C31.9512 33.7418 31.5201 34.1729 31.5131 34.7067V41.1864C31.5131 41.7232 31.9483 42.1583 32.4851 42.1583C33.0219 42.1583 33.457 41.7232 33.457 41.1864V34.7067C33.4501 34.1729 33.019 33.7418 32.4851 33.7348Z" fill="url(#paint2_linear_0_242)"/>
<path d="M26.2258 18.2355C25.9206 17.8335 25.3611 17.7272 24.9298 17.9893C24.7175 18.138 24.5734 18.3655 24.5296 18.621C24.4858 18.8765 24.5459 19.139 24.6966 19.35L28.3381 24.6503C28.5051 25.0014 28.8652 25.2192 29.2537 25.204C29.6421 25.1889 29.9842 24.9437 30.1234 24.5808C30.2625 24.2178 30.172 23.8068 29.8932 23.5358L26.2258 18.2355Z" fill="url(#paint3_linear_0_242)"/>
<path d="M36.6321 33.0998C36.3243 32.6596 35.718 32.5523 35.2778 32.86C34.8376 33.1678 34.7303 33.7741 35.0381 34.2143L38.7444 39.5146C39.0522 39.9548 39.6585 40.0621 40.0987 39.7544C40.5388 39.4466 40.6462 38.8403 40.3384 38.4001L36.6321 33.0998Z" fill="url(#paint4_linear_0_242)"/>
<path d="M20.5885 25.5834L26.6793 27.7994C26.7865 27.8181 26.8961 27.8181 27.0033 27.7994C27.4214 27.7371 27.7512 27.4117 27.8192 26.9946C27.8873 26.5774 27.6779 26.1641 27.3014 25.9722L21.2494 23.7561C21.003 23.6473 20.7223 23.6471 20.4758 23.7556C20.2292 23.8641 20.0397 24.0712 19.9535 24.3264C19.8679 24.5772 19.887 24.8519 20.0065 25.0885C20.126 25.325 20.3358 25.5034 20.5885 25.5834Z" fill="url(#paint5_linear_0_242)"/>
<path d="M44.3817 32.1667L38.2908 29.9507C38.0421 29.8504 37.7632 29.856 37.5186 29.9661C37.274 30.0761 37.0849 30.2812 36.9949 30.5338C36.8907 30.7823 36.8944 31.0628 37.0049 31.3085C37.1155 31.5542 37.323 31.743 37.5781 31.8298L43.7208 34.0588C43.8287 34.0989 43.9426 34.1208 44.0577 34.1236C44.4629 34.1217 44.8244 33.8686 44.9649 33.4886C45.0736 33.2369 45.0726 32.9512 44.9619 32.7003C44.8512 32.4494 44.6409 32.2561 44.3817 32.1667Z" fill="url(#paint6_linear_0_242)"/>
<path d="M27.7938 30.171C27.727 29.9217 27.5638 29.7091 27.3402 29.5803C27.1165 29.4514 26.8508 29.4168 26.6016 29.4841L20.3422 31.117C19.857 31.2306 19.5364 31.6928 19.5998 32.1871C19.6633 32.6814 20.0903 33.0476 20.5885 33.035C20.6744 33.0476 20.7617 33.0476 20.8477 33.035L27.107 31.3632C27.6216 31.2181 27.9265 30.689 27.7938 30.171Z" fill="url(#paint7_linear_0_242)"/>
<path d="M37.1763 27.5791C37.2966 28.0036 37.6813 28.2986 38.1224 28.3048C38.204 28.3173 38.287 28.3173 38.3686 28.3048L44.6279 26.6331C44.9852 26.5677 45.2761 26.3085 45.3823 25.9612C45.4885 25.6139 45.3922 25.2363 45.1325 24.9823C44.8729 24.7283 44.4934 24.6403 44.1484 24.754L37.8891 26.4258C37.3826 26.5595 37.0694 27.0663 37.1763 27.5791Z" fill="url(#paint8_linear_0_242)"/>
<path d="M27.9882 32.7628L23.8283 37.6874C23.6112 37.9763 23.5723 38.3618 23.7273 38.6883C23.8824 39.0148 24.2058 39.2282 24.567 39.2425C24.8576 39.2458 25.134 39.1171 25.3186 38.8926L29.4785 33.9292C29.646 33.7319 29.7278 33.4759 29.7059 33.2181C29.684 32.9602 29.5602 32.7218 29.3619 32.5555C28.9232 32.2422 28.3149 32.334 27.9882 32.7628Z" fill="url(#paint9_linear_0_242)"/>
<path d="M36.2303 25.3761C36.5261 25.3644 36.8015 25.2219 36.982 24.9873L41.1419 20.0627C41.4468 19.6664 41.3961 19.1023 41.0253 18.7668C40.8279 18.5994 40.572 18.5175 40.3142 18.5394C40.0563 18.5613 39.8178 18.6851 39.6516 18.8835L35.4916 23.7821C35.3242 23.9794 35.2424 24.2353 35.2643 24.4932C35.2862 24.751 35.41 24.9895 35.6083 25.1557C35.7819 25.3025 36.0031 25.3808 36.2303 25.3761Z" fill="url(#paint10_linear_0_242)"/>
</g>
<defs>
<filter id="filter0_d_0_242" x="0" y="0" width="65" height="65" filterUnits="userSpaceOnUse" color-interpolation-filters="sRGB">
<feFlood flood-opacity="0" result="BackgroundImageFix"/>
<feColorMatrix in="SourceAlpha" type="matrix" values="0 0 0 0 0 0 0 0 0 0 0 0 0 0 0 0 0 0 127 0" result="hardAlpha"/>
<feOffset dy="4"/>
<feGaussianBlur stdDeviation="2"/>
<feComposite in2="hardAlpha" operator="out"/>
<feColorMatrix type="matrix" values="0 0 0 0 0 0 0 0 0 0 0 0 0 0 0 0 0 0 0.25 0"/>
<feBlend mode="normal" in2="BackgroundImageFix" result="effect1_dropShadow_0_242"/>
<feBlend mode="normal" in="SourceGraphic" in2="effect1_dropShadow_0_242" result="shape"/>
</filter>
<linearGradient id="paint0_linear_0_242" x1="3.32592" y1="28.8358" x2="59.9215" y2="28.8358" gradientUnits="userSpaceOnUse">
<stop stop-color="#7F1E10"/>
<stop offset="0.1" stop-color="#7F1E10"/>
<stop offset="0.18" stop-color="#821E10"/>
<stop offset="1" stop-color="#A21E11"/>
</linearGradient>
<linearGradient id="paint1_linear_0_242" x1="19.2864" y1="29.0316" x2="44.936" y2="29.0316" gradientUnits="userSpaceOnUse">
<stop stop-color="#7F1E10"/>
<stop offset="0.1" stop-color="#7F1E10"/>
<stop offset="0.18" stop-color="#821E10"/>
<stop offset="1" stop-color="#A21E11"/>
</linearGradient>
<linearGradient id="paint2_linear_0_242" x1="19.2864" y1="29.0316" x2="44.936" y2="29.0316" gradientUnits="userSpaceOnUse">
<stop stop-color="#7F1E10"/>
<stop offset="0.1" stop-color="#7F1E10"/>
<stop offset="0.18" stop-color="#821E10"/>
<stop offset="1" stop-color="#A21E11"/>
</linearGradient>
<linearGradient id="paint3_linear_0_242" x1="19.2864" y1="29.0316" x2="44.936" y2="29.0316" gradientUnits="userSpaceOnUse">
<stop stop-color="#7F1E10"/>
<stop offset="0.1" stop-color="#7F1E10"/>
<stop offset="0.18" stop-color="#821E10"/>
<stop offset="1" stop-color="#A21E11"/>
</linearGradient>
<linearGradient id="paint4_linear_0_242" x1="19.2864" y1="29.0316" x2="44.936" y2="29.0316" gradientUnits="userSpaceOnUse">
<stop stop-color="#7F1E10"/>
<stop offset="0.1" stop-color="#7F1E10"/>
<stop offset="0.18" stop-color="#821E10"/>
<stop offset="1" stop-color="#A21E11"/>
</linearGradient>
<linearGradient id="paint5_linear_0_242" x1="19.2864" y1="29.0316" x2="44.936" y2="29.0316" gradientUnits="userSpaceOnUse">
<stop stop-color="#7F1E10"/>
<stop offset="0.1" stop-color="#7F1E10"/>
<stop offset="0.18" stop-color="#821E10"/>
<stop offset="1" stop-color="#A21E11"/>
</linearGradient>
<linearGradient id="paint6_linear_0_242" x1="19.2864" y1="29.0316" x2="44.936" y2="29.0316" gradientUnits="userSpaceOnUse">
<stop stop-color="#7F1E10"/>
<stop offset="0.1" stop-color="#7F1E10"/>
<stop offset="0.18" stop-color="#821E10"/>
<stop offset="1" stop-color="#A21E11"/>
</linearGradient>
<linearGradient id="paint7_linear_0_242" x1="19.2864" y1="29.0316" x2="44.936" y2="29.0316" gradientUnits="userSpaceOnUse">
<stop stop-color="#7F1E10"/>
<stop offset="0.1" stop-color="#7F1E10"/>
<stop offset="0.18" stop-color="#821E10"/>
<stop offset="1" stop-color="#A21E11"/>
</linearGradient>
<linearGradient id="paint8_linear_0_242" x1="19.2864" y1="29.0316" x2="44.936" y2="29.0316" gradientUnits="userSpaceOnUse">
<stop stop-color="#7F1E10"/>
<stop offset="0.1" stop-color="#7F1E10"/>
<stop offset="0.18" stop-color="#821E10"/>
<stop offset="1" stop-color="#A21E11"/>
</linearGradient>
<linearGradient id="paint9_linear_0_242" x1="19.2864" y1="29.0316" x2="44.936" y2="29.0316" gradientUnits="userSpaceOnUse">
<stop stop-color="#7F1E10"/>
<stop offset="0.1" stop-color="#7F1E10"/>
<stop offset="0.18" stop-color="#821E10"/>
<stop offset="1" stop-color="#A21E11"/>
</linearGradient>
<linearGradient id="paint10_linear_0_242" x1="19.2864" y1="29.0316" x2="44.936" y2="29.0316" gradientUnits="userSpaceOnUse">
<stop stop-color="#7F1E10"/>
<stop offset="0.1" stop-color="#7F1E10"/>
<stop offset="0.18" stop-color="#821E10"/>
<stop offset="1" stop-color="#A21E11"/>
</linearGradient>
</defs>
</svg>
