<svg width="57" height="57" viewBox="0 0 57 57" fill="none" xmlns="http://www.w3.org/2000/svg">
<g clip-path="url(#clip0_140_36)">
<g filter="url(#filter0_d_140_36)">
<rect width="57" height="57" rx="28.5" fill="url(#paint0_linear_140_36)"/>
<path d="M28.485 15.5918C27.9512 15.5988 27.5201 16.0299 27.5131 16.5637V23.0434C27.5131 23.5802 27.9482 24.0153 28.485 24.0153C29.0218 24.0153 29.457 23.5802 29.457 23.0434V16.5637C29.45 16.0299 29.0189 15.5988 28.485 15.5918Z" fill="url(#paint1_linear_140_36)"/>
<path d="M28.485 33.7348C27.9512 33.7418 27.5201 34.1729 27.5131 34.7067V41.1864C27.5131 41.7232 27.9482 42.1583 28.485 42.1583C29.0218 42.1583 29.457 41.7232 29.457 41.1864V34.7067C29.45 34.1729 29.0189 33.7418 28.485 33.7348Z" fill="url(#paint2_linear_140_36)"/>
<path d="M22.2257 18.2355C21.9206 17.8335 21.361 17.7272 20.9298 17.9893C20.7174 18.138 20.5734 18.3655 20.5296 18.621C20.4858 18.8765 20.5459 19.139 20.6965 19.35L24.3381 24.6503C24.505 25.0014 24.8652 25.2192 25.2536 25.204C25.6421 25.1889 25.9841 24.9437 26.1233 24.5808C26.2625 24.2178 26.1719 23.8068 25.8932 23.5358L22.2257 18.2355Z" fill="url(#paint3_linear_140_36)"/>
<path d="M32.632 33.0998C32.3242 32.6596 31.7179 32.5523 31.2778 32.86C30.8376 33.1678 30.7302 33.7741 31.038 34.2143L34.7444 39.5146C35.0521 39.9548 35.6584 40.0621 36.0986 39.7544C36.5388 39.4466 36.6461 38.8403 36.3383 38.4001L32.632 33.0998Z" fill="url(#paint4_linear_140_36)"/>
<path d="M16.5884 25.5834L22.6793 27.7994C22.7865 27.8181 22.8961 27.8181 23.0033 27.7994C23.4213 27.7371 23.7511 27.4117 23.8192 26.9946C23.8872 26.5774 23.6779 26.1641 23.3013 25.9722L17.2493 23.7561C17.003 23.6473 16.7222 23.6471 16.4757 23.7556C16.2292 23.8641 16.0396 24.0712 15.9534 24.3264C15.8678 24.5772 15.8869 24.8519 16.0064 25.0885C16.1259 25.325 16.3357 25.5034 16.5884 25.5834Z" fill="url(#paint5_linear_140_36)"/>
<path d="M40.3816 32.1667L34.2908 29.9507C34.042 29.8504 33.7631 29.856 33.5185 29.9661C33.2739 30.0761 33.0848 30.2812 32.9949 30.5338C32.8907 30.7823 32.8943 31.0628 33.0049 31.3085C33.1154 31.5542 33.323 31.743 33.578 31.8298L39.7207 34.0588C39.8287 34.0989 39.9425 34.1208 40.0577 34.1236C40.4628 34.1217 40.8244 33.8686 40.9648 33.4886C41.0736 33.2369 41.0725 32.9512 40.9618 32.7003C40.8511 32.4494 40.6409 32.2561 40.3816 32.1667Z" fill="url(#paint6_linear_140_36)"/>
<path d="M23.7938 30.171C23.727 29.9217 23.5638 29.7091 23.3401 29.5803C23.1164 29.4514 22.8507 29.4168 22.6015 29.4841L16.3422 31.117C15.857 31.2306 15.5363 31.6928 15.5998 32.1871C15.6632 32.6814 16.0902 33.0476 16.5884 33.035C16.6743 33.0476 16.7617 33.0476 16.8476 33.035L23.1069 31.3632C23.6215 31.2181 23.9264 30.689 23.7938 30.171Z" fill="url(#paint7_linear_140_36)"/>
<path d="M33.1763 27.5791C33.2966 28.0036 33.6812 28.2986 34.1223 28.3048C34.2039 28.3173 34.2869 28.3173 34.3685 28.3048L40.6279 26.6331C40.9851 26.5677 41.2761 26.3085 41.3823 25.9612C41.4884 25.6139 41.3921 25.2363 41.1325 24.9823C40.8729 24.7283 40.4933 24.6403 40.1484 24.754L33.889 26.4258C33.3825 26.5595 33.0693 27.0663 33.1763 27.5791Z" fill="url(#paint8_linear_140_36)"/>
<path d="M23.9882 32.7628L19.8282 37.6874C19.6111 37.9763 19.5722 38.3618 19.7273 38.6883C19.8824 39.0148 20.2058 39.2282 20.5669 39.2425C20.8575 39.2458 21.134 39.1171 21.3185 38.8926L25.4785 33.9292C25.6459 33.7319 25.7277 33.4759 25.7059 33.2181C25.684 32.9602 25.5601 32.7217 25.3618 32.5555C24.9231 32.2422 24.3149 32.334 23.9882 32.7628Z" fill="url(#paint9_linear_140_36)"/>
<path d="M32.2303 25.3761C32.5261 25.3644 32.8014 25.2219 32.9819 24.9873L37.1418 20.0627C37.4468 19.6664 37.396 19.1023 37.0252 18.7668C36.8279 18.5994 36.5719 18.5175 36.3141 18.5394C36.0562 18.5613 35.8178 18.6851 35.6515 18.8835L31.4916 23.7821C31.3241 23.9794 31.2423 24.2353 31.2642 24.4932C31.2861 24.751 31.4099 24.9895 31.6082 25.1557C31.7818 25.3025 32.003 25.3808 32.2303 25.3761Z" fill="url(#paint10_linear_140_36)"/>
<path fill-rule="evenodd" clip-rule="evenodd" d="M20.175 26.8564C20.5729 26.8564 20.9544 26.6984 21.2357 26.4171C21.517 26.1358 21.675 25.7543 21.675 25.3564C21.675 24.9586 21.517 24.5771 21.2357 24.2958C20.9544 24.0145 20.5729 23.8564 20.175 23.8564C19.7772 23.8564 19.3957 24.0145 19.1144 24.2958C18.8331 24.5771 18.675 24.9586 18.675 25.3564C18.675 25.7543 18.8331 26.1358 19.1144 26.4171C19.3957 26.6984 19.7772 26.8564 20.175 26.8564ZM20.175 29.8564C21.3685 29.8564 22.5131 29.3823 23.357 28.5384C24.2009 27.6945 24.675 26.5499 24.675 25.3564C24.675 24.163 24.2009 23.0184 23.357 22.1745C22.5131 21.3306 21.3685 20.8564 20.175 20.8564C18.9816 20.8564 17.837 21.3306 16.9931 22.1745C16.1492 23.0184 15.675 24.163 15.675 25.3564C15.675 26.5499 16.1492 27.6945 16.9931 28.5384C17.837 29.3823 18.9816 29.8564 20.175 29.8564Z" fill="#CAA2A2"/>
<path fill-rule="evenodd" clip-rule="evenodd" d="M20.25 30.9814C19.6533 30.9814 19.081 31.2185 18.659 31.6405C18.2371 32.0624 18 32.6347 18 33.2314V35.4814C18 35.8793 17.842 36.2608 17.5607 36.5421C17.2794 36.8234 16.8978 36.9814 16.5 36.9814C16.1022 36.9814 15.7206 36.8234 15.4393 36.5421C15.158 36.2608 15 35.8793 15 35.4814V33.2314C15 31.8391 15.5531 30.5037 16.5377 29.5191C17.5223 28.5346 18.8576 27.9814 20.25 27.9814C21.6424 27.9814 22.9777 28.5346 23.9623 29.5191C24.9469 30.5037 25.5 31.8391 25.5 33.2314V35.4814C25.5 35.8793 25.342 36.2608 25.0607 36.5421C24.7794 36.8234 24.3978 36.9814 24 36.9814C23.6022 36.9814 23.2206 36.8234 22.9393 36.5421C22.658 36.2608 22.5 35.8793 22.5 35.4814V33.2314C22.5 32.6347 22.2629 32.0624 21.841 31.6405C21.419 31.2185 20.8467 30.9814 20.25 30.9814ZM38.175 26.8564C37.7772 26.8564 37.3956 26.6984 37.1143 26.4171C36.833 26.1358 36.675 25.7543 36.675 25.3564C36.675 24.9586 36.833 24.5771 37.1143 24.2958C37.3956 24.0145 37.7772 23.8564 38.175 23.8564C38.5728 23.8564 38.9544 24.0145 39.2357 24.2958C39.517 24.5771 39.675 24.9586 39.675 25.3564C39.675 25.7543 39.517 26.1358 39.2357 26.4171C38.9544 26.6984 38.5728 26.8564 38.175 26.8564ZM38.175 29.8564C36.9815 29.8564 35.8369 29.3823 34.993 28.5384C34.1491 27.6945 33.675 26.5499 33.675 25.3564C33.675 24.163 34.1491 23.0184 34.993 22.1745C35.8369 21.3306 36.9815 20.8564 38.175 20.8564C39.3685 20.8564 40.5131 21.3306 41.357 22.1745C42.2009 23.0184 42.675 24.163 42.675 25.3564C42.675 26.5499 42.2009 27.6945 41.357 28.5384C40.5131 29.3823 39.3685 29.8564 38.175 29.8564Z" fill="#CAA2A2"/>
<path fill-rule="evenodd" clip-rule="evenodd" d="M38.1 30.9814C38.6967 30.9814 39.269 31.2185 39.691 31.6405C40.1129 32.0624 40.35 32.6347 40.35 33.2314V35.4814C40.35 35.8793 40.508 36.2608 40.7893 36.5421C41.0706 36.8234 41.4522 36.9814 41.85 36.9814C42.2478 36.9814 42.6293 36.8234 42.9106 36.5421C43.1919 36.2608 43.35 35.8793 43.35 35.4814V33.2314C43.35 31.8391 42.7969 30.5037 41.8123 29.5191C40.8277 28.5346 39.4924 27.9814 38.1 27.9814C36.7076 27.9814 35.3722 28.5346 34.3877 29.5191C33.4031 30.5037 32.85 31.8391 32.85 33.2314V35.4814C32.85 35.8793 33.008 36.2608 33.2893 36.5421C33.5706 36.8234 33.9522 36.9814 34.35 36.9814C34.7478 36.9814 35.1293 36.8234 35.4106 36.5421C35.6919 36.2608 35.85 35.8793 35.85 35.4814V33.2314C35.85 32.6347 36.087 32.0624 36.509 31.6405C36.9309 31.2185 37.5032 30.9814 38.1 30.9814Z" fill="#CAA2A2"/>
<path fill-rule="evenodd" clip-rule="evenodd" d="M29.25 35.1064C28.2554 35.1064 27.3016 35.5015 26.5983 36.2048C25.8951 36.9081 25.5 37.8619 25.5 38.8564V41.1064C25.5 41.5043 25.342 41.8858 25.0607 42.1671C24.7794 42.4484 24.3978 42.6064 24 42.6064C23.6022 42.6064 23.2206 42.4484 22.9393 42.1671C22.658 41.8858 22.5 41.5043 22.5 41.1064V38.8564C22.5 37.0662 23.2112 35.3493 24.477 34.0835C25.7429 32.8176 27.4598 32.1064 29.25 32.1064C31.0402 32.1064 32.7571 32.8176 34.023 34.0835C35.2888 35.3493 36 37.0662 36 38.8564V41.1064C36 41.5043 35.842 41.8858 35.5607 42.1671C35.2794 42.4484 34.8978 42.6064 34.5 42.6064C34.1022 42.6064 33.7206 42.4484 33.4393 42.1671C33.158 41.8858 33 41.5043 33 41.1064V38.8564C33 37.8619 32.6049 36.9081 31.9017 36.2048C31.1984 35.5015 30.2446 35.1064 29.25 35.1064Z" fill="#CAA2A2"/>
<path fill-rule="evenodd" clip-rule="evenodd" d="M29.175 30.9814C29.5729 30.9814 29.9544 30.8234 30.2357 30.5421C30.517 30.2608 30.675 29.8793 30.675 29.4814C30.675 29.0836 30.517 28.7021 30.2357 28.4208C29.9544 28.1395 29.5729 27.9814 29.175 27.9814C28.7772 27.9814 28.3957 28.1395 28.1144 28.4208C27.8331 28.7021 27.675 29.0836 27.675 29.4814C27.675 29.8793 27.8331 30.2608 28.1144 30.5421C28.3957 30.8234 28.7772 30.9814 29.175 30.9814ZM29.175 33.9814C30.3685 33.9814 31.5131 33.5073 32.357 32.6634C33.2009 31.8195 33.675 30.6749 33.675 29.4814C33.675 28.288 33.2009 27.1434 32.357 26.2995C31.5131 25.4556 30.3685 24.9814 29.175 24.9814C27.9816 24.9814 26.837 25.4556 25.9931 26.2995C25.1492 27.1434 24.675 28.288 24.675 29.4814C24.675 30.6749 25.1492 31.8195 25.9931 32.6634C26.837 33.5073 27.9816 33.9814 29.175 33.9814Z" fill="#CAA2A2"/>
<path d="M16.1145 18.5421C15.8413 18.2592 15.6901 17.8803 15.6935 17.487C15.697 17.0937 15.8547 16.7175 16.1328 16.4393C16.4109 16.1612 16.7872 16.0035 17.1804 16.0001C17.5737 15.9966 17.9526 16.1478 18.2355 16.4211L42.2355 40.4211C42.5088 40.704 42.66 41.0829 42.6566 41.4762C42.6531 41.8695 42.4954 42.2457 42.2173 42.5238C41.9392 42.8019 41.5629 42.9597 41.1696 42.9631C40.7764 42.9665 40.3975 42.8153 40.1145 42.5421L16.1145 18.5421Z" fill="#CAA2A2"/>
</g>
</g>
<defs>
<filter id="filter0_d_140_36" x="-4" y="0" width="65" height="65" filterUnits="userSpaceOnUse" color-interpolation-filters="sRGB">
<feFlood flood-opacity="0" result="BackgroundImageFix"/>
<feColorMatrix in="SourceAlpha" type="matrix" values="0 0 0 0 0 0 0 0 0 0 0 0 0 0 0 0 0 0 127 0" result="hardAlpha"/>
<feOffset dy="4"/>
<feGaussianBlur stdDeviation="2"/>
<feComposite in2="hardAlpha" operator="out"/>
<feColorMatrix type="matrix" values="0 0 0 0 0 0 0 0 0 0 0 0 0 0 0 0 0 0 0.25 0"/>
<feBlend mode="normal" in2="BackgroundImageFix" result="effect1_dropShadow_140_36"/>
<feBlend mode="normal" in="SourceGraphic" in2="effect1_dropShadow_140_36" result="shape"/>
</filter>
<linearGradient id="paint0_linear_140_36" x1="-0.674084" y1="28.8358" x2="55.9215" y2="28.8358" gradientUnits="userSpaceOnUse">
<stop stop-color="#7F1E10"/>
<stop offset="0.1" stop-color="#7F1E10"/>
<stop offset="0.18" stop-color="#821E10"/>
<stop offset="1" stop-color="#A21E11"/>
</linearGradient>
<linearGradient id="paint1_linear_140_36" x1="15.2863" y1="29.0316" x2="40.936" y2="29.0316" gradientUnits="userSpaceOnUse">
<stop stop-color="#7F1E10"/>
<stop offset="0.1" stop-color="#7F1E10"/>
<stop offset="0.18" stop-color="#821E10"/>
<stop offset="1" stop-color="#A21E11"/>
</linearGradient>
<linearGradient id="paint2_linear_140_36" x1="15.2863" y1="29.0316" x2="40.936" y2="29.0316" gradientUnits="userSpaceOnUse">
<stop stop-color="#7F1E10"/>
<stop offset="0.1" stop-color="#7F1E10"/>
<stop offset="0.18" stop-color="#821E10"/>
<stop offset="1" stop-color="#A21E11"/>
</linearGradient>
<linearGradient id="paint3_linear_140_36" x1="15.2863" y1="29.0316" x2="40.936" y2="29.0316" gradientUnits="userSpaceOnUse">
<stop stop-color="#7F1E10"/>
<stop offset="0.1" stop-color="#7F1E10"/>
<stop offset="0.18" stop-color="#821E10"/>
<stop offset="1" stop-color="#A21E11"/>
</linearGradient>
<linearGradient id="paint4_linear_140_36" x1="15.2863" y1="29.0316" x2="40.936" y2="29.0316" gradientUnits="userSpaceOnUse">
<stop stop-color="#7F1E10"/>
<stop offset="0.1" stop-color="#7F1E10"/>
<stop offset="0.18" stop-color="#821E10"/>
<stop offset="1" stop-color="#A21E11"/>
</linearGradient>
<linearGradient id="paint5_linear_140_36" x1="15.2863" y1="29.0316" x2="40.936" y2="29.0316" gradientUnits="userSpaceOnUse">
<stop stop-color="#7F1E10"/>
<stop offset="0.1" stop-color="#7F1E10"/>
<stop offset="0.18" stop-color="#821E10"/>
<stop offset="1" stop-color="#A21E11"/>
</linearGradient>
<linearGradient id="paint6_linear_140_36" x1="15.2863" y1="29.0316" x2="40.936" y2="29.0316" gradientUnits="userSpaceOnUse">
<stop stop-color="#7F1E10"/>
<stop offset="0.1" stop-color="#7F1E10"/>
<stop offset="0.18" stop-color="#821E10"/>
<stop offset="1" stop-color="#A21E11"/>
</linearGradient>
<linearGradient id="paint7_linear_140_36" x1="15.2863" y1="29.0316" x2="40.936" y2="29.0316" gradientUnits="userSpaceOnUse">
<stop stop-color="#7F1E10"/>
<stop offset="0.1" stop-color="#7F1E10"/>
<stop offset="0.18" stop-color="#821E10"/>
<stop offset="1" stop-color="#A21E11"/>
</linearGradient>
<linearGradient id="paint8_linear_140_36" x1="15.2863" y1="29.0316" x2="40.936" y2="29.0316" gradientUnits="userSpaceOnUse">
<stop stop-color="#7F1E10"/>
<stop offset="0.1" stop-color="#7F1E10"/>
<stop offset="0.18" stop-color="#821E10"/>
<stop offset="1" stop-color="#A21E11"/>
</linearGradient>
<linearGradient id="paint9_linear_140_36" x1="15.2863" y1="29.0316" x2="40.936" y2="29.0316" gradientUnits="userSpaceOnUse">
<stop stop-color="#7F1E10"/>
<stop offset="0.1" stop-color="#7F1E10"/>
<stop offset="0.18" stop-color="#821E10"/>
<stop offset="1" stop-color="#A21E11"/>
</linearGradient>
<linearGradient id="paint10_linear_140_36" x1="15.2863" y1="29.0316" x2="40.936" y2="29.0316" gradientUnits="userSpaceOnUse">
<stop stop-color="#7F1E10"/>
<stop offset="0.1" stop-color="#7F1E10"/>
<stop offset="0.18" stop-color="#821E10"/>
<stop offset="1" stop-color="#A21E11"/>
</linearGradient>
<clipPath id="clip0_140_36">
<rect width="57" height="57" rx="28.5" fill="white"/>
</clipPath>
</defs>
</svg>
