<svg width="93" height="69" viewBox="0 0 93 69" fill="none" xmlns="http://www.w3.org/2000/svg">
<mask id="mask0_91_51" style="mask-type:luminance" maskUnits="userSpaceOnUse" x="0" y="46" width="11" height="14">
<path d="M1.53215 46.7622L1.54607 57.9809C1.54607 58.4544 1.51125 58.7817 1.44161 58.9906C1.35804 59.1996 1.19786 59.3388 0.98893 59.4294C0.800894 59.499 0.487501 59.5477 0 59.5686V59.9168H10.1191V56.0519H9.6177C9.52716 56.9781 9.38787 57.5631 9.21377 58.0575C9.03966 58.5241 8.7402 58.8374 8.34323 59.0672C7.9393 59.2762 7.36823 59.3945 6.60216 59.3945H2.9459L2.92501 46.7692H1.53215V46.7622Z" fill="white"/>
</mask>
<g mask="url(#mask0_91_51)">
<path d="M10.1191 46.7622H0V59.9099H10.1191V46.7622Z" fill="url(#paint0_linear_91_51)"/>
</g>
<mask id="mask1_91_51" style="mask-type:luminance" maskUnits="userSpaceOnUse" x="3" y="46" width="3" height="13">
<path d="M3.39856 46.7622L3.41249 58.9558H4.00445L3.99052 48.7121C3.99052 48.2385 4.00445 47.9112 4.09499 47.7023C4.16463 47.4934 4.30392 47.3332 4.49195 47.2636C4.70088 47.18 5.0491 47.1243 5.45303 47.1104V46.7622H3.39856Z" fill="white"/>
</mask>
<g mask="url(#mask1_91_51)">
<path d="M5.45303 46.7622H3.39856V58.9558H5.45303V46.7622Z" fill="url(#paint1_linear_91_51)"/>
</g>
<mask id="mask2_91_51" style="mask-type:luminance" maskUnits="userSpaceOnUse" x="10" y="49" width="10" height="11">
<path d="M14.2211 52.4089L15.5373 55.8908H12.8422L14.2211 52.4089ZM14.8339 49.7975L14.82 49.8532L18.4136 59.512H17.9957L14.6041 50.4033L10.8225 59.9159H13.058V59.6373C12.6123 59.6234 12.3198 59.5607 12.1179 59.4215C11.9159 59.2822 11.8114 59.129 11.8114 58.8156C11.8114 58.5022 11.902 58.2376 12.09 57.7571L12.682 56.2669H15.6557L17.0207 59.9089H19.7786V59.6304C19.3468 59.6025 18.7897 59.31 18.5459 58.7042L15.2379 49.7905H14.82L14.8339 49.7975Z" fill="white"/>
</mask>
<g mask="url(#mask2_91_51)">
<path d="M19.7925 49.7974H10.8295V59.9158H19.7925V49.7974Z" fill="url(#paint2_linear_91_51)"/>
</g>
<mask id="mask3_91_51" style="mask-type:luminance" maskUnits="userSpaceOnUse" x="20" y="49" width="5" height="11">
<path d="M23.1424 49.7975L23.1563 59.5259H22.7802L22.7663 49.7975H21.7077L21.7216 58.4256C21.7216 58.7878 21.6938 59.0385 21.6311 59.2056C21.5754 59.3658 21.457 59.4702 21.3108 59.5259C21.1506 59.5956 21.1088 59.6304 20.7466 59.6443V59.9089H23.6159L23.602 51.2808C23.602 50.9187 23.6299 50.668 23.6925 50.5008C23.7483 50.3407 23.8527 50.2223 24.0129 50.1666C24.1591 50.0969 24.389 50.076 24.7511 50.0621V49.7905H23.1424V49.7975Z" fill="white"/>
</mask>
<g mask="url(#mask3_91_51)">
<path d="M24.7511 49.7974H20.7466V59.9158H24.7511V49.7974Z" fill="url(#paint3_linear_91_51)"/>
</g>
<mask id="mask4_91_51" style="mask-type:luminance" maskUnits="userSpaceOnUse" x="26" y="49" width="6" height="9">
<path d="M27.2165 49.9587C26.5897 50.293 26.2902 50.8153 26.2484 51.3654C26.1509 52.6537 26.917 53.2039 27.307 53.4824C27.6134 53.6844 28.4979 54.1927 29.1525 54.5131C29.835 54.8612 30.4827 55.1816 30.8658 55.5298C31.3602 55.9755 31.7084 56.5326 31.8408 57.1523C31.8825 57.3821 31.8825 57.4587 31.8686 57.7164C31.9243 57.5562 31.9452 57.41 31.9591 57.222C31.9731 56.7624 31.8129 56.2192 31.6666 55.9337C31.4159 55.4671 31.2 55.293 30.8518 55.0214C30.5175 54.7568 29.7097 54.3529 29.3615 54.1788C28.9715 53.9908 27.4741 53.1899 27.0702 52.7721C26.7359 52.4378 26.5897 51.8877 26.6175 51.4699C26.6593 50.7317 27.112 50.3974 27.3975 50.2651C27.69 50.1328 28.094 50.0144 28.5466 50.0214C29.1734 50.0353 29.6958 50.2791 30.037 50.5158C30.3574 50.7735 30.5315 50.9824 30.6916 51.3863C30.8658 51.7902 30.9633 52.1802 30.9981 52.7164H31.402C31.402 51.3654 31.4159 50.4253 31.4716 49.8334H31.0677C31.0399 50.0493 31.012 50.2233 30.9772 50.3139C30.9354 50.4044 30.8797 50.4601 30.7891 50.4601C30.6847 50.4601 30.5872 50.4183 30.3713 50.286C30.239 50.2025 30.0649 50.1119 29.9256 50.0423C29.654 49.8961 29.1595 49.6802 28.5049 49.6802C28.0522 49.6802 27.5647 49.7777 27.2025 49.9518" fill="white"/>
</mask>
<g mask="url(#mask4_91_51)">
<path d="M31.987 49.6865H26.1579V57.7158H31.987V49.6865Z" fill="url(#paint4_linear_91_51)"/>
</g>
<mask id="mask5_91_51" style="mask-type:luminance" maskUnits="userSpaceOnUse" x="25" y="50" width="7" height="10">
<path d="M25.8097 50.8426C25.5798 51.2047 25.364 51.6295 25.364 52.1587C25.364 52.6532 25.4545 53.3008 25.7679 53.7952C25.9838 54.1574 26.2623 54.4777 26.5966 54.7354C27.1956 55.2159 28.47 55.8078 29.6261 56.4763C29.9465 56.6783 30.6847 57.1588 30.6708 57.9874C30.6568 58.3913 30.5245 58.6838 30.3643 58.8858C30.0997 59.22 29.4659 59.5264 28.5257 59.5125C27.7109 59.5125 26.9448 59.1783 26.4643 58.6281C25.9977 58.1058 25.9281 57.4234 25.8584 56.4554H25.4545C25.4545 58.2242 25.4266 59.2688 25.3988 59.7911H25.8027C25.8306 59.5891 25.8723 59.429 25.9072 59.3384C25.9629 59.2479 26.0116 59.1783 26.0952 59.1783C26.1997 59.1783 26.1857 59.1504 26.4852 59.3245C26.8334 59.5264 26.9936 59.5822 27.1259 59.6309C27.4184 59.7632 27.892 59.9025 28.5188 59.9095C28.8391 59.9234 29.257 59.8816 29.6331 59.8189C30.3156 59.6727 30.7961 59.3523 31.1374 58.844C31.8477 57.7298 31.3533 56.5111 30.6011 55.8565C30.2529 55.5501 29.6261 55.2298 28.9645 54.8886C28.2959 54.5543 27.4532 54.1016 26.9797 53.7604C26.5757 53.4679 25.7191 52.8482 25.8236 51.337C25.8515 51.0445 25.942 50.7451 26.1022 50.4805C25.9977 50.5849 25.8863 50.7103 25.7957 50.8426" fill="white"/>
</mask>
<g mask="url(#mask5_91_51)">
<path d="M31.8547 50.4805H25.3709V59.9303H31.8547V50.4805Z" fill="url(#paint5_linear_91_51)"/>
</g>
<mask id="mask6_91_51" style="mask-type:luminance" maskUnits="userSpaceOnUse" x="33" y="46" width="12" height="14">
<path d="M37.7326 50.1603L39.4389 54.6868H35.9358L37.7326 50.1603ZM38.5335 46.762L38.5126 46.8316L43.1787 59.3874H42.6355L38.2271 47.5419L33.3173 59.9096H36.2283V59.5405C35.6573 59.5266 35.2673 59.4361 35.0096 59.262C34.7449 59.0879 34.6126 58.879 34.6126 58.4821C34.6126 58.0851 34.731 57.73 34.9817 57.1032L35.7478 55.1673H39.613L41.3889 59.9027H44.9755V59.5336C44.4184 59.4988 43.6871 59.1158 43.3737 58.3288L39.0698 46.748H38.5266L38.5335 46.762Z" fill="white"/>
</mask>
<g mask="url(#mask6_91_51)">
<path d="M44.9824 46.7617H33.3312V59.9094H44.9824V46.7617Z" fill="url(#paint6_linear_91_51)"/>
</g>
<mask id="mask7_91_51" style="mask-type:luminance" maskUnits="userSpaceOnUse" x="45" y="49" width="10" height="11">
<path d="M48.3183 49.7983L48.3322 54.3805H48.7779V51.3095C48.7779 50.9613 48.8476 50.7036 48.9799 50.5574C49.154 50.3415 49.2097 50.3276 49.356 50.251C49.5579 50.1465 49.8226 50.1047 49.9828 50.0908C50.4772 50.049 51.2154 50.3067 51.6054 50.6827C52.0999 51.1493 52.3158 51.6577 52.3158 52.4376C52.3158 52.9181 52.1278 53.4404 52.0094 53.6424C51.7308 54.1089 51.4731 54.3248 51.0553 54.5268C50.7628 54.6591 50.2613 54.7566 49.9688 54.7844C49.6903 54.8123 49.6903 54.7983 49.3908 54.7983H48.3322V59.5268H47.9701L47.9562 49.7983H46.8837L46.8976 58.4126C46.8976 58.7608 46.8697 59.0254 46.8001 59.1925C46.7444 59.3527 46.612 59.4641 46.4658 59.5128C46.3056 59.5825 46.0479 59.6173 45.6858 59.6312V59.9098H48.7779V55.1814H49.8922L52.4133 58.9906C52.5038 59.1229 52.5596 59.2482 52.5596 59.3248C52.5596 59.4293 52.4899 59.4989 52.3854 59.5546C52.281 59.5964 52.0929 59.6243 51.891 59.6382V59.9167H54.4887L51.0065 54.9585C51.5706 54.8541 52.0233 54.673 52.3854 54.4084C52.8033 54.1159 53.1097 53.7816 53.2838 53.4056C53.458 53.0295 53.5485 52.6535 53.5485 52.2775C53.5485 51.8109 53.4162 51.3931 53.1585 51.017C52.9008 50.641 52.5178 50.3346 52.0094 50.1187C51.4871 49.9028 50.8672 49.7983 50.1221 49.7983H48.3113H48.3183Z" fill="white"/>
</mask>
<g mask="url(#mask7_91_51)">
<path d="M54.4959 49.7983H45.6931V59.9167H54.4959V49.7983Z" fill="url(#paint7_linear_91_51)"/>
</g>
<mask id="mask8_91_51" style="mask-type:luminance" maskUnits="userSpaceOnUse" x="55" y="49" width="10" height="11">
<path d="M58.138 49.7983L58.1519 54.3805H58.5907V51.3095C58.5907 50.9613 58.6603 50.7036 58.7926 50.5574C58.9668 50.3415 59.0225 50.3276 59.1687 50.251C59.3707 50.1465 59.6353 50.1047 59.7955 50.0908C60.29 50.049 61.0282 50.3067 61.4182 50.6827C61.9127 51.1493 62.1285 51.6577 62.1285 52.4376C62.1285 52.9181 61.9405 53.4404 61.8221 53.6424C61.5435 54.1089 61.2859 54.3248 60.868 54.5268C60.5755 54.6591 60.0741 54.7566 59.7816 54.7844C59.503 54.8123 59.503 54.7983 59.2035 54.7983H58.145V59.5268H57.7828L57.7689 49.7983H56.6964L56.7103 58.4126C56.7103 58.7608 56.6825 59.0254 56.6128 59.1925C56.5571 59.3527 56.4248 59.4641 56.2785 59.5128C56.1184 59.5825 55.8607 59.6173 55.4985 59.6312V59.9098H58.5976V55.1814H59.7119L62.233 58.9906C62.3305 59.1229 62.3793 59.2482 62.3793 59.3248C62.3793 59.4293 62.3096 59.4989 62.2052 59.5546C62.1007 59.5964 61.9127 59.6243 61.7107 59.6382V59.9167H64.3084L60.8262 54.9585C61.3903 54.8541 61.843 54.673 62.2052 54.4084C62.623 54.1159 62.9294 53.7816 63.1035 53.4056C63.2777 53.0295 63.3682 52.6535 63.3682 52.2775C63.3682 51.8109 63.2359 51.3931 62.9782 51.017C62.7205 50.641 62.3375 50.3346 61.8291 50.1187C61.3068 49.9028 60.6869 49.7983 59.9418 49.7983H58.131H58.138Z" fill="white"/>
</mask>
<g mask="url(#mask8_91_51)">
<path d="M64.3153 49.7983H55.5125V59.9167H64.3153V49.7983Z" fill="url(#paint8_linear_91_51)"/>
</g>
<mask id="mask9_91_51" style="mask-type:luminance" maskUnits="userSpaceOnUse" x="65" y="49" width="9" height="11">
<path d="M71.7392 49.7983L71.7532 55.7454C71.7532 56.9084 71.5791 57.8624 71.1194 58.5449C70.7016 59.1855 70.0051 59.5128 69.0719 59.5128C68.8421 59.5128 68.7376 59.5128 68.4591 59.4711C67.8183 59.4014 67.3169 59.1647 66.9687 58.8165C66.3767 58.2385 66.1399 57.2357 66.1399 55.5504C66.1399 55.2162 66.1399 50.9543 66.126 49.7983H65.0674V55.627C65.0674 56.2956 65.0953 56.8318 65.158 57.2496C65.2137 57.6674 65.3739 58.0156 65.5341 58.3081C65.6803 58.6006 65.9519 58.914 66.2444 59.1507C66.8085 59.6312 67.505 59.9307 68.9535 59.9167C69.6639 59.9028 70.0957 59.7984 70.5623 59.5546C71.015 59.3109 71.3144 58.9906 71.5512 58.5936C71.7671 58.2315 71.9133 57.8137 72.0039 57.3332C72.1014 56.8387 72.1362 56.2468 72.1362 55.5783V51.4488C72.1362 51.0727 72.1641 50.8081 72.2267 50.6201C72.2825 50.432 72.3869 50.2858 72.5471 50.2022C72.7073 50.1187 72.9092 50.0699 73.2853 50.056V49.7983H71.7323H71.7392Z" fill="white"/>
</mask>
<g mask="url(#mask9_91_51)">
<path d="M73.2992 49.7983H65.0674V59.9307H73.2992V49.7983Z" fill="url(#paint9_linear_91_51)"/>
</g>
<mask id="mask10_91_51" style="mask-type:luminance" maskUnits="userSpaceOnUse" x="66" y="49" width="3" height="10">
<path d="M66.5021 49.7983L66.516 55.5365C66.516 57.0128 66.7458 57.946 67.1706 58.4543C67.0871 58.1758 67.0523 57.8624 67.0244 57.6535C66.9687 57.2078 66.9548 56.6229 66.9548 55.8569V51.3025C66.9548 50.9404 66.9826 50.6897 67.0383 50.5226C67.094 50.3624 67.1985 50.2301 67.3587 50.1605C67.5189 50.1048 67.7626 50.0769 68.1108 50.0699V49.8053H66.5021V49.7983Z" fill="white"/>
</mask>
<g mask="url(#mask10_91_51)">
<path d="M68.1108 49.7983H66.5021V58.4543H68.1108V49.7983Z" fill="url(#paint10_linear_91_51)"/>
</g>
<mask id="mask11_91_51" style="mask-type:luminance" maskUnits="userSpaceOnUse" x="73" y="49" width="10" height="11">
<path d="M76.9764 49.7983H76.0502V59.1786H76.5028V51.4209C76.5028 51.0866 76.5446 50.9265 76.6003 50.7663C76.656 50.5922 76.7884 50.4738 76.8789 50.4181C77.241 50.1744 77.6032 50.1256 78.1116 50.1396C78.9264 50.1535 80.0825 50.5713 80.765 51.6298C81.3012 52.4167 81.5311 53.4892 81.5171 54.7009C81.5171 55.8917 81.2873 56.9153 80.9112 57.6117C80.5073 58.3638 80.0546 58.7886 79.4487 59.102C78.7384 59.4502 77.8539 59.5337 77.1575 59.5337H75.6671V49.8192L74.5946 49.8053L74.6085 58.4195C74.6085 58.7816 74.5807 59.0393 74.518 59.1995C74.4623 59.3596 74.3439 59.478 74.1977 59.5337C74.0375 59.6034 73.8355 59.6243 73.4316 59.6382V59.9167L76.5377 59.9307C76.9137 59.9307 77.2759 59.9167 77.4082 59.9167C78.4807 59.9167 79.1214 59.8401 79.7134 59.6452C80.5561 59.3666 81.5519 58.9209 82.2484 57.4864C82.6245 56.6925 82.8543 55.7594 82.8543 54.7148C82.8543 53.3917 82.5757 52.0755 81.6077 51.0449C80.7928 50.1883 79.6646 49.7983 77.9862 49.7983L76.9694 49.8123L76.9764 49.7983Z" fill="white"/>
</mask>
<g mask="url(#mask11_91_51)">
<path d="M82.8612 49.7852H73.4385V59.9175H82.8612V49.7852Z" fill="url(#paint11_linear_91_51)"/>
</g>
<mask id="mask12_91_51" style="mask-type:luminance" maskUnits="userSpaceOnUse" x="83" y="49" width="10" height="11">
<path d="M86.9632 52.4089L88.2794 55.8908H85.5842L86.9632 52.4089ZM87.576 49.7975L87.5621 49.8532L91.1557 59.512H90.7378L87.3462 50.4033L83.5646 59.9159H85.8001V59.6373C85.3614 59.6234 85.0619 59.5538 84.8599 59.4215C84.658 59.2892 84.5535 59.129 84.5535 58.8156C84.5535 58.5022 84.644 58.2376 84.8321 57.7571L85.424 56.2669H88.3978L89.7628 59.9089H92.5207V59.6304C92.0889 59.6025 91.5317 59.31 91.288 58.7042L87.9799 49.7905H87.5621L87.576 49.7975Z" fill="white"/>
</mask>
<g mask="url(#mask12_91_51)">
<path d="M92.5346 49.7974H83.5715V59.9158H92.5346V49.7974Z" fill="url(#paint12_linear_91_51)"/>
</g>
<mask id="mask13_91_51" style="mask-type:luminance" maskUnits="userSpaceOnUse" x="28" y="0" width="37" height="44">
<path d="M28.094 6.60865V26.1073H28.1219C28.8879 35.8357 46.2708 43.6213 46.2708 43.6213C46.2708 43.6213 63.6467 35.8357 64.4198 26.1073H64.4476V25.4527V6.60865L46.3683 0L28.101 6.60865H28.094Z" fill="white"/>
</mask>
<g mask="url(#mask13_91_51)">
<path d="M46.6371 -18.163L6.29413 21.3823L45.9154 61.797L86.2585 22.2517L46.6371 -18.163Z" fill="url(#paint13_linear_91_51)"/>
</g>
<mask id="mask14_91_51" style="mask-type:luminance" maskUnits="userSpaceOnUse" x="48" y="36" width="3" height="2">
<path d="M48.2138 36.5811C48.3392 36.978 48.764 37.2705 49.2724 37.2705C49.7808 37.2705 50.1986 36.978 50.3309 36.5811H48.2138Z" fill="white"/>
</mask>
<g mask="url(#mask14_91_51)">
<path d="M50.3309 36.5811H48.2138V37.2705H50.3309V36.5811Z" fill="url(#paint14_linear_91_51)"/>
</g>
<mask id="mask15_91_51" style="mask-type:luminance" maskUnits="userSpaceOnUse" x="49" y="32" width="1" height="5">
<path d="M49.2307 32.8758V36.7825C49.2307 36.7825 49.2446 36.8312 49.2724 36.8312C49.2724 36.8312 49.3212 36.8103 49.3212 36.7894V32.8827C49.3212 32.8827 49.3073 32.834 49.2794 32.834C49.2794 32.834 49.2376 32.8549 49.2376 32.8758" fill="white"/>
</mask>
<g mask="url(#mask15_91_51)">
<path d="M49.3212 32.834H49.2307V36.8312H49.3212V32.834Z" fill="url(#paint15_linear_91_51)"/>
</g>
<mask id="mask16_91_51" style="mask-type:luminance" maskUnits="userSpaceOnUse" x="48" y="32" width="2" height="5">
<path d="M49.2306 32.8625L48.2278 36.5602C48.2278 36.5602 48.2347 36.609 48.2626 36.6159C48.2626 36.6159 48.2696 36.6159 48.2765 36.6159C48.2974 36.6159 48.3183 36.602 48.3183 36.5811L49.3212 32.8833C49.3212 32.8833 49.3142 32.8346 49.2864 32.8276C49.2864 32.8276 49.2794 32.8276 49.2724 32.8276C49.2515 32.8276 49.2376 32.8416 49.2306 32.8625Z" fill="white"/>
</mask>
<g mask="url(#mask16_91_51)">
<path d="M49.3212 32.834H48.2139V36.6223H49.3212V32.834Z" fill="url(#paint16_linear_91_51)"/>
</g>
<mask id="mask17_91_51" style="mask-type:luminance" maskUnits="userSpaceOnUse" x="49" y="32" width="2" height="5">
<path d="M49.2585 32.834C49.2585 32.834 49.2167 32.8618 49.2237 32.8897L50.2335 36.5875C50.2335 36.5875 50.2544 36.6223 50.2753 36.6223C50.2753 36.6223 50.2823 36.6223 50.2892 36.6223C50.3101 36.6223 50.324 36.5875 50.3171 36.5666L49.3073 32.8688C49.3073 32.8688 49.2794 32.834 49.2655 32.834C49.2655 32.834 49.2585 32.834 49.2515 32.834" fill="white"/>
</mask>
<g mask="url(#mask17_91_51)">
<path d="M50.3383 32.834H49.224V36.6223H50.3383V32.834Z" fill="url(#paint17_linear_91_51)"/>
</g>
<mask id="mask18_91_51" style="mask-type:luminance" maskUnits="userSpaceOnUse" x="42" y="36" width="3" height="2">
<path d="M42.6702 36.5811C42.8025 36.978 43.2274 37.2705 43.7288 37.2705C44.2302 37.2705 44.6551 36.978 44.7874 36.5811H42.6702Z" fill="white"/>
</mask>
<g mask="url(#mask18_91_51)">
<path d="M44.7874 36.5811H42.6702V37.2705H44.7874V36.5811Z" fill="url(#paint18_linear_91_51)"/>
</g>
<mask id="mask19_91_51" style="mask-type:luminance" maskUnits="userSpaceOnUse" x="43" y="32" width="1" height="5">
<path d="M43.687 32.8758V36.7825C43.687 36.7825 43.7009 36.8312 43.7288 36.8312C43.7288 36.8312 43.7706 36.8103 43.7775 36.7894V32.8827C43.7775 32.8827 43.7636 32.834 43.7358 32.834C43.7358 32.834 43.687 32.8549 43.687 32.8758Z" fill="white"/>
</mask>
<g mask="url(#mask19_91_51)">
<path d="M43.7775 32.834H43.687V36.8312H43.7775V32.834Z" fill="url(#paint19_linear_91_51)"/>
</g>
<mask id="mask20_91_51" style="mask-type:luminance" maskUnits="userSpaceOnUse" x="42" y="32" width="2" height="5">
<path d="M43.6871 32.8625L42.6842 36.5602C42.6842 36.5602 42.6912 36.609 42.719 36.6159C42.719 36.6159 42.726 36.6159 42.733 36.6159C42.7538 36.6159 42.7747 36.602 42.7747 36.5811L43.7776 32.8833C43.7776 32.8833 43.7706 32.8346 43.7428 32.8276C43.7428 32.8276 43.7358 32.8276 43.7288 32.8276C43.708 32.8276 43.6871 32.8416 43.6871 32.8625Z" fill="white"/>
</mask>
<g mask="url(#mask20_91_51)">
<path d="M43.7843 32.834H42.6769V36.6223H43.7843V32.834Z" fill="url(#paint20_linear_91_51)"/>
</g>
<mask id="mask21_91_51" style="mask-type:luminance" maskUnits="userSpaceOnUse" x="43" y="32" width="2" height="5">
<path d="M43.7149 32.834C43.7149 32.834 43.6731 32.8618 43.68 32.8897L44.6899 36.5875C44.6899 36.5875 44.7108 36.6223 44.7317 36.6223C44.7317 36.6223 44.7386 36.6223 44.7456 36.6223C44.7734 36.6223 44.7874 36.5875 44.7804 36.5666L43.7706 32.8688C43.7706 32.8688 43.7497 32.834 43.7288 32.834C43.7288 32.834 43.7218 32.834 43.7149 32.834Z" fill="white"/>
</mask>
<g mask="url(#mask21_91_51)">
<path d="M44.7946 32.834H43.6804V36.6223H44.7946V32.834Z" fill="url(#paint21_linear_91_51)"/>
</g>
<mask id="mask22_91_51" style="mask-type:luminance" maskUnits="userSpaceOnUse" x="43" y="30" width="7" height="9">
<path d="M46.2638 31.6433C46.2638 31.4414 46.5006 31.2742 46.5006 31.2742C46.5006 31.2742 46.7374 31.4414 46.7374 31.6433C46.7374 31.8453 46.5006 32.0124 46.5006 32.0124C46.5006 32.0124 46.2638 31.8453 46.2638 31.6433ZM46.0131 31.6433C46.0131 31.6433 46.0131 31.6781 46.0131 31.699C45.5395 31.7896 45.1217 32.0333 44.5576 32.4093C44.2163 32.6392 43.8751 32.8968 43.6801 32.862C43.6592 32.862 43.6452 32.8481 43.6243 32.8411C43.694 32.8132 43.7358 32.7506 43.7358 32.674C43.7358 32.5765 43.6522 32.4929 43.5547 32.4929C43.4572 32.4929 43.3806 32.5695 43.3736 32.667C43.3597 32.7715 43.4224 32.8899 43.6035 32.9525C43.9099 33.05 44.4113 32.7784 44.7177 32.6113C44.9894 32.4651 45.2401 32.3606 45.4838 32.291C46.0897 32.1935 46.2986 32.6322 46.3683 32.8272C46.2777 32.869 46.222 32.9595 46.222 33.0709C46.222 33.1823 46.2847 33.2729 46.3822 33.3146V36.0584C46.2847 36.1002 46.222 36.1907 46.222 36.3021C46.222 36.4135 46.2847 36.4971 46.3752 36.5458C46.3335 37.0124 46.1176 38.0082 44.9894 38.1823C44.8152 38.1823 44.662 38.3077 44.6342 38.4748H48.367C48.3322 38.3077 48.186 38.1823 48.0119 38.1823C46.8767 38.0082 46.6608 37.0055 46.626 36.5458C46.7165 36.5041 46.7792 36.4135 46.7792 36.3021C46.7792 36.1907 46.7165 36.1002 46.619 36.0584V33.3146C46.7095 33.2729 46.7792 33.1754 46.7792 33.0709C46.7792 32.9665 46.7165 32.8759 46.6329 32.8272C46.6956 32.6322 46.9115 32.1935 47.5104 32.291C47.7542 32.3606 48.0049 32.4651 48.2765 32.6113C48.5899 32.7784 49.0913 33.05 49.3908 32.9525C49.5719 32.8899 49.6345 32.7715 49.6206 32.667C49.6206 32.5695 49.537 32.4929 49.4395 32.4929C49.342 32.4929 49.2585 32.5765 49.2585 32.674C49.2585 32.7506 49.3072 32.8132 49.3769 32.8411C49.3629 32.8481 49.342 32.855 49.3211 32.862C49.1261 32.8968 48.7849 32.6392 48.4436 32.4093C47.8726 32.0263 47.4547 31.7896 46.9881 31.699C46.9881 31.6781 46.9881 31.6642 46.9881 31.6433C46.9881 31.2255 46.5006 30.8843 46.5006 30.8843C46.5006 30.8843 46.0201 31.2255 46.0201 31.6433" fill="white"/>
</mask>
<g mask="url(#mask22_91_51)">
<path d="M49.6277 30.8843H43.3738V38.4748H49.6277V30.8843Z" fill="url(#paint22_linear_91_51)"/>
</g>
<mask id="mask23_91_51" style="mask-type:luminance" maskUnits="userSpaceOnUse" x="35" y="11" width="23" height="22">
<path d="M51.3408 11.5252C50.2613 11.6715 49.342 11.9431 48.5969 12.34C47.8517 12.7369 47.2528 13.2592 46.814 13.9068C46.3753 14.5545 46.1176 15.2439 46.0549 15.9681C46.0061 16.4835 46.0758 16.8804 46.2638 17.1589C46.4449 17.4375 46.7095 17.5907 47.0578 17.6186C47.3015 17.6394 47.5174 17.5768 47.7054 17.4166C47.8935 17.2634 47.9979 17.0684 48.0188 16.8525C48.0328 16.6784 47.991 16.3999 47.8795 16.0169C47.7751 15.6687 47.7333 15.411 47.7542 15.223C47.8029 14.6659 48.0676 14.1436 48.5412 13.6422C49.0147 13.1478 49.6833 12.7996 50.5608 12.6046C51.1946 12.4584 52.7685 12.3887 55.2826 12.3887C53.2699 14.2829 50.5817 17.3609 47.2249 21.6227C46.6399 22.3609 46.0897 23.0503 45.5674 23.684C45.3794 23.9138 45.1983 24.1367 45.0172 24.3456C44.5645 24.8888 44.1258 25.3971 43.7219 25.8567C43.499 26.1074 43.2901 26.3442 43.0811 26.567C42.0992 27.6395 41.2704 28.4403 40.6088 28.9626C39.7244 29.659 38.9374 29.9723 38.2618 29.9097C38.0599 29.8888 37.6629 29.7843 37.071 29.5893C36.8342 29.5197 36.6461 29.4709 36.4999 29.464C36.2561 29.4431 36.0472 29.5127 35.8731 29.6659C35.699 29.8191 35.5945 30.035 35.5736 30.2927C35.5458 30.6339 35.6572 30.9333 35.9149 31.1701C36.1726 31.4138 36.5835 31.5601 37.1545 31.6088C38.234 31.7063 39.4179 31.3094 40.7063 30.4111C41.347 29.9654 42.907 28.2662 44.3208 26.6715C44.5367 26.4278 44.7456 26.191 44.9476 25.9612C45.3933 25.4528 45.8042 24.9793 46.1385 24.5893C46.3613 24.3317 46.5494 24.1088 46.6956 23.9347C46.9045 23.684 47.0299 23.5378 47.0299 23.5378H49.0704C49.0495 23.4681 49.0217 23.3985 48.9869 23.3149C48.8476 22.9668 48.764 22.6673 48.7431 22.4097H47.9492L52.3646 16.9988C52.7058 16.5809 53.5972 15.5851 55.0319 13.9974L55.4567 13.5795C54.614 16.0587 52.7197 22.3888 52.7197 22.3888H52.2044C52.2253 22.542 52.2392 22.7021 52.2392 22.8623C52.2392 23.0851 52.2183 23.301 52.1835 23.5099H52.4481C52.4481 23.5099 51.9885 25.4389 51.8004 26.9013C51.6472 28.106 51.8213 29.1019 52.1417 29.8957C52.4621 30.6966 52.9496 31.3094 53.6042 31.7481C54.3633 32.2495 55.1503 32.4306 55.9581 32.2843C56.766 32.1381 57.344 31.8108 57.6783 31.2955C57.8106 31.1005 57.8594 30.8916 57.8315 30.6757C57.8037 30.4598 57.7062 30.2927 57.539 30.1813C57.3858 30.0768 57.1978 30.0559 56.9889 30.1047C56.8287 30.1464 56.5431 30.3484 56.1253 30.7035C55.4219 31.3164 54.7812 31.4278 54.1962 31.0448C53.5972 30.6478 53.4788 29.9027 53.3953 28.7746C53.3117 27.6464 54.9413 21.7272 56.0417 18.0225C57.6365 12.6603 57.741 12.3887 57.9708 11.5392C58.1171 11.4834 56.8287 11.4486 56.8287 11.4486C55.986 11.4417 54.9622 11.4417 54.2867 11.4347C53.9803 11.4347 53.6947 11.4277 53.4301 11.4277C52.4969 11.4277 51.8074 11.4626 51.3756 11.5252" fill="white"/>
</mask>
<g mask="url(#mask23_91_51)">
<path d="M58.0892 11.4277H35.511V32.4306H58.0892V11.4277Z" fill="url(#paint23_linear_91_51)"/>
</g>
<mask id="mask24_91_51" style="mask-type:luminance" maskUnits="userSpaceOnUse" x="34" y="7" width="17" height="19">
<path d="M43.9169 8.54444C42.6981 9.43581 41.6744 10.8077 40.8526 12.6531C40.3163 13.8787 39.7174 15.8913 39.0558 18.6768C38.5613 20.7868 38.1644 22.1796 37.8788 22.8551C37.5863 23.5305 37.266 23.9971 36.9038 24.2617C36.5417 24.5264 35.8313 24.7562 34.7658 24.9581L34.5847 25.7799C35.7338 25.6058 37.0501 25.5222 38.5404 25.5222C39.2995 25.5222 40.7063 25.6058 42.7469 25.7729C43.1787 25.2924 43.6383 24.7631 44.1328 24.1782C44.0979 24.1782 44.0631 24.1712 44.0353 24.1642C43.5756 24.0946 43.0812 24.0668 42.5449 24.0668C41.6813 24.0668 40.5253 24.2269 39.0767 24.5403C39.4806 24.0737 39.8288 23.4888 40.1144 22.7785C40.5113 21.7826 41.0894 19.7701 41.8554 16.7408C42.3429 14.8328 42.7469 13.4609 43.0603 12.6322C43.5478 11.4066 44.0144 10.4804 44.4671 9.85364C44.9197 9.23386 45.3376 8.80906 45.7346 8.58622C46.0201 8.42606 46.3056 8.34249 46.5981 8.34249C46.8489 8.34249 47.1135 8.40516 47.3781 8.53748C47.6497 8.66979 48.0258 8.94834 48.5133 9.37313C48.9451 9.77007 49.3212 9.96506 49.6206 9.96506C49.8505 9.96506 50.0524 9.88149 50.2196 9.7074C50.3867 9.5333 50.4703 9.32439 50.4703 9.08065C50.4703 8.64194 50.1987 8.22411 49.6485 7.82021C49.0983 7.4163 48.4228 7.21436 47.6219 7.21436C46.3753 7.21436 45.1356 7.66004 43.9169 8.5514" fill="white"/>
</mask>
<g mask="url(#mask24_91_51)">
<path d="M50.4703 7.20654H34.5847V25.786H50.4703V7.20654Z" fill="url(#paint24_linear_91_51)"/>
</g>
<mask id="mask25_91_51" style="mask-type:luminance" maskUnits="userSpaceOnUse" x="45" y="21" width="7" height="6">
<path d="M49.7042 21.5949C49.7042 21.5949 49.6763 21.6228 49.6624 21.6437C49.5301 21.7969 49.4604 21.9988 49.4604 22.2495C49.4604 22.2983 49.4604 22.354 49.4743 22.4097C49.5022 22.5768 49.5579 22.7857 49.6554 23.0295C49.732 23.2175 49.7877 23.3846 49.8226 23.5309C49.8504 23.6492 49.8643 23.7537 49.8643 23.8442C49.8643 24.0044 49.8295 24.1576 49.7529 24.2969C49.6833 24.4292 49.5858 24.5476 49.4604 24.659C49.1888 24.8958 48.8615 25.0211 48.4785 25.0211C48.1581 25.0211 47.6427 24.9445 46.9324 24.7913C46.6399 25.1395 46.2638 25.5712 45.8459 26.0517C46.4379 26.0935 46.9463 26.1144 47.3711 26.1144C48.6177 26.1144 49.6067 25.7941 50.3379 25.1534C50.6443 24.8888 50.8881 24.5963 51.0622 24.2899C51.2015 24.0462 51.299 23.7955 51.3617 23.5239C51.4104 23.315 51.4313 23.0991 51.4313 22.8763C51.4313 22.7091 51.4174 22.549 51.3895 22.4097C51.3408 22.159 51.2502 21.9501 51.111 21.776C51.0761 21.7272 51.0343 21.6854 50.9926 21.6506C50.8045 21.4696 50.5817 21.3721 50.331 21.3721C50.0663 21.3721 49.8574 21.4487 49.6902 21.6088" fill="white"/>
</mask>
<g mask="url(#mask25_91_51)">
<path d="M51.4452 21.3579H45.8599V26.1072H51.4452V21.3579Z" fill="url(#paint25_linear_91_51)"/>
</g>
<mask id="mask26_91_51" style="mask-type:luminance" maskUnits="userSpaceOnUse" x="21" y="64" width="5" height="5">
<path d="M23.6508 65.3762L24.4238 67.3051H22.8777L23.6508 65.3762ZM23.3235 64.5684L21.6729 68.7258H22.3484L22.6549 67.9319H24.6745L24.981 68.7258H25.6774L24.0199 64.5684H23.3304H23.3235Z" fill="white"/>
</mask>
<g mask="url(#mask26_91_51)">
<path d="M25.6701 64.5684H21.6656V68.7258H25.6701V64.5684Z" fill="url(#paint26_linear_91_51)"/>
</g>
<mask id="mask27_91_51" style="mask-type:luminance" maskUnits="userSpaceOnUse" x="27" y="64" width="5" height="5">
<path d="M28.296 65.2369H29.0411C30.2877 65.2369 30.5594 65.5851 30.5594 66.6575C30.5594 67.7299 30.232 68.099 29.0202 68.099H28.296V65.2369ZM27.6204 64.5962V68.7257H28.9854C30.5802 68.7257 31.2419 68.2452 31.2419 66.6575C31.2419 65.0697 30.622 64.5962 29.0342 64.5962H27.6274H27.6204Z" fill="white"/>
</mask>
<g mask="url(#mask27_91_51)">
<path d="M31.2419 64.5962H27.6204V68.7257H31.2419V64.5962Z" fill="url(#paint27_linear_91_51)"/>
</g>
<mask id="mask28_91_51" style="mask-type:luminance" maskUnits="userSpaceOnUse" x="32" y="64" width="5" height="5">
<path d="M36.0751 64.5962L34.8006 67.904L33.5192 64.5962H32.8088L34.4454 68.7536H35.1349L36.7855 64.5962H36.0751Z" fill="white"/>
</mask>
<g mask="url(#mask28_91_51)">
<path d="M36.7855 64.5962H32.8088V68.7536H36.7855V64.5962Z" fill="url(#paint28_linear_91_51)"/>
</g>
<mask id="mask29_91_51" style="mask-type:luminance" maskUnits="userSpaceOnUse" x="38" y="64" width="5" height="5">
<path d="M39.014 66.6711C39.014 65.731 39.4318 65.1808 40.4626 65.1808C41.4933 65.1808 41.9181 65.724 41.9181 66.6711C41.9181 67.6182 41.5002 68.1613 40.4626 68.1613C39.4249 68.1613 39.014 67.6182 39.014 66.6711ZM38.3384 66.6572C38.3384 68.1753 39.1463 68.7881 40.4695 68.7881C41.7927 68.7881 42.6006 68.1753 42.6006 66.6572C42.6006 65.1391 41.7858 64.5332 40.4695 64.5332C39.1533 64.5332 38.3384 65.146 38.3384 66.6572Z" fill="white"/>
</mask>
<g mask="url(#mask29_91_51)">
<path d="M42.6006 64.5332H38.3384V68.795H42.6006V64.5332Z" fill="url(#paint29_linear_91_51)"/>
</g>
<mask id="mask30_91_51" style="mask-type:luminance" maskUnits="userSpaceOnUse" x="44" y="64" width="5" height="5">
<path d="M44.4253 66.6572C44.4253 68.043 44.9407 68.7881 46.4937 68.7881C48.0467 68.7881 48.388 68.1265 48.388 66.9705V66.3856H46.4449V66.9914H47.7194V67.0959C47.7194 67.8271 47.4757 68.1822 46.5216 68.1822C45.4421 68.1822 45.0939 67.6878 45.0939 66.6641C45.0939 65.6404 45.5396 65.1808 46.5285 65.1808C47.1066 65.1808 47.406 65.3619 47.6358 65.5778L48.1164 65.0833C47.8239 64.7839 47.3433 64.5332 46.5285 64.5332C45.1774 64.5332 44.4183 65.1739 44.4183 66.6572" fill="white"/>
</mask>
<g mask="url(#mask30_91_51)">
<path d="M48.3883 64.5332H44.4256V68.7881H48.3883V64.5332Z" fill="url(#paint30_linear_91_51)"/>
</g>
<mask id="mask31_91_51" style="mask-type:luminance" maskUnits="userSpaceOnUse" x="49" y="64" width="5" height="5">
<path d="M51.9189 65.3762L52.6919 67.3051H51.1458L51.9189 65.3762ZM51.5846 64.5684L49.934 68.7258H50.6096L50.916 67.9319H52.9356L53.2421 68.7258H53.9385L52.281 64.5684H51.5915H51.5846Z" fill="white"/>
</mask>
<g mask="url(#mask31_91_51)">
<path d="M53.9313 64.5684H49.9268V68.7258H53.9313V64.5684Z" fill="url(#paint31_linear_91_51)"/>
</g>
<mask id="mask32_91_51" style="mask-type:luminance" maskUnits="userSpaceOnUse" x="55" y="64" width="5" height="5">
<path d="M56.5571 65.2369H57.3022C58.5489 65.2369 58.8205 65.5851 58.8205 66.6575C58.8205 67.7299 58.4931 68.099 57.2744 68.099H56.5501V65.2369H56.5571ZM55.8885 64.5962V68.7257H57.2535C58.8483 68.7257 59.5099 68.2452 59.5099 66.6575C59.5099 65.0697 58.8901 64.5962 57.3022 64.5962H55.8955H55.8885Z" fill="white"/>
</mask>
<g mask="url(#mask32_91_51)">
<path d="M59.5099 64.5962H55.8885V68.7257H59.5099V64.5962Z" fill="url(#paint32_linear_91_51)"/>
</g>
<mask id="mask33_91_51" style="mask-type:luminance" maskUnits="userSpaceOnUse" x="61" y="64" width="5" height="5">
<path d="M62.0101 66.6711C62.0101 65.731 62.428 65.1808 63.4587 65.1808C64.4894 65.1808 64.9143 65.724 64.9143 66.6711C64.9143 67.6182 64.4964 68.1613 63.4587 68.1613C62.421 68.1613 62.0101 67.6182 62.0101 66.6711ZM61.3276 66.6572C61.3276 68.1753 62.1355 68.7881 63.4518 68.7881C64.768 68.7881 65.5828 68.1753 65.5828 66.6572C65.5828 65.1391 64.768 64.5332 63.4518 64.5332C62.1355 64.5332 61.3276 65.146 61.3276 66.6572Z" fill="white"/>
</mask>
<g mask="url(#mask33_91_51)">
<path d="M65.5898 64.5332H61.3276V68.795H65.5898V64.5332Z" fill="url(#paint33_linear_91_51)"/>
</g>
<mask id="mask34_91_51" style="mask-type:luminance" maskUnits="userSpaceOnUse" x="67" y="64" width="4" height="5">
<path d="M67.5189 65.717C67.5189 66.5875 68.1039 66.7616 69.0998 66.9148C69.7823 67.0193 70.2001 67.1028 70.2001 67.5485C70.2001 67.9942 69.9355 68.1892 69.1067 68.1892C68.5914 68.1892 68.0969 68.0638 67.6303 67.7574L67.2891 68.2728C67.7835 68.621 68.4033 68.7811 69.1207 68.7811C70.3742 68.7811 70.8617 68.3494 70.8617 67.5137C70.8617 66.6084 70.2071 66.4552 69.26 66.302C68.5635 66.1906 68.1805 66.114 68.1805 65.6962C68.1805 65.3131 68.4173 65.153 69.1137 65.153C69.5733 65.153 70.033 65.2853 70.3116 65.4733L70.6737 64.9232C70.3534 64.7073 69.8589 64.5332 69.1207 64.5332C68.0482 64.5332 67.5189 64.8535 67.5189 65.717Z" fill="white"/>
</mask>
<g mask="url(#mask34_91_51)">
<path d="M70.869 64.5332H67.2963V68.7811H70.869V64.5332Z" fill="url(#paint34_linear_91_51)"/>
</g>
<defs>
<linearGradient id="paint0_linear_91_51" x1="-4.79039" y1="53.4471" x2="100.266" y2="53.4471" gradientUnits="userSpaceOnUse">
<stop stop-color="#B7854D"/>
<stop offset="0.15" stop-color="#F5D98F"/>
<stop offset="0.3" stop-color="#FDF6B7"/>
<stop offset="0.52" stop-color="#F5D88E"/>
<stop offset="0.64" stop-color="#FCF5B7"/>
<stop offset="0.75" stop-color="#D4B067"/>
<stop offset="0.85" stop-color="#BD9149"/>
<stop offset="1" stop-color="#B7854D"/>
</linearGradient>
<linearGradient id="paint1_linear_91_51" x1="-4.79041" y1="52.9666" x2="100.266" y2="52.9666" gradientUnits="userSpaceOnUse">
<stop stop-color="#B7854D"/>
<stop offset="0.15" stop-color="#F5D98F"/>
<stop offset="0.3" stop-color="#FDF6B7"/>
<stop offset="0.52" stop-color="#F5D88E"/>
<stop offset="0.64" stop-color="#FCF5B7"/>
<stop offset="0.75" stop-color="#D4B067"/>
<stop offset="0.85" stop-color="#BD9149"/>
<stop offset="1" stop-color="#B7854D"/>
</linearGradient>
<linearGradient id="paint2_linear_91_51" x1="-4.79041" y1="54.9572" x2="100.266" y2="54.9572" gradientUnits="userSpaceOnUse">
<stop stop-color="#B7854D"/>
<stop offset="0.15" stop-color="#F5D98F"/>
<stop offset="0.3" stop-color="#FDF6B7"/>
<stop offset="0.52" stop-color="#F5D88E"/>
<stop offset="0.64" stop-color="#FCF5B7"/>
<stop offset="0.75" stop-color="#D4B067"/>
<stop offset="0.85" stop-color="#BD9149"/>
<stop offset="1" stop-color="#B7854D"/>
</linearGradient>
<linearGradient id="paint3_linear_91_51" x1="-4.7904" y1="54.9572" x2="100.266" y2="54.9572" gradientUnits="userSpaceOnUse">
<stop stop-color="#B7854D"/>
<stop offset="0.15" stop-color="#F5D98F"/>
<stop offset="0.3" stop-color="#FDF6B7"/>
<stop offset="0.52" stop-color="#F5D88E"/>
<stop offset="0.64" stop-color="#FCF5B7"/>
<stop offset="0.75" stop-color="#D4B067"/>
<stop offset="0.85" stop-color="#BD9149"/>
<stop offset="1" stop-color="#B7854D"/>
</linearGradient>
<linearGradient id="paint4_linear_91_51" x1="-4.7904" y1="53.8087" x2="100.266" y2="53.8087" gradientUnits="userSpaceOnUse">
<stop stop-color="#B7854D"/>
<stop offset="0.15" stop-color="#F5D98F"/>
<stop offset="0.3" stop-color="#FDF6B7"/>
<stop offset="0.52" stop-color="#F5D88E"/>
<stop offset="0.64" stop-color="#FCF5B7"/>
<stop offset="0.75" stop-color="#D4B067"/>
<stop offset="0.85" stop-color="#BD9149"/>
<stop offset="1" stop-color="#B7854D"/>
</linearGradient>
<linearGradient id="paint5_linear_91_51" x1="-4.79043" y1="55.306" x2="100.266" y2="55.306" gradientUnits="userSpaceOnUse">
<stop stop-color="#B7854D"/>
<stop offset="0.15" stop-color="#F5D98F"/>
<stop offset="0.3" stop-color="#FDF6B7"/>
<stop offset="0.52" stop-color="#F5D88E"/>
<stop offset="0.64" stop-color="#FCF5B7"/>
<stop offset="0.75" stop-color="#D4B067"/>
<stop offset="0.85" stop-color="#BD9149"/>
<stop offset="1" stop-color="#B7854D"/>
</linearGradient>
<linearGradient id="paint6_linear_91_51" x1="-4.79034" y1="53.4466" x2="100.266" y2="53.4466" gradientUnits="userSpaceOnUse">
<stop stop-color="#B7854D"/>
<stop offset="0.15" stop-color="#F5D98F"/>
<stop offset="0.3" stop-color="#FDF6B7"/>
<stop offset="0.52" stop-color="#F5D88E"/>
<stop offset="0.64" stop-color="#FCF5B7"/>
<stop offset="0.75" stop-color="#D4B067"/>
<stop offset="0.85" stop-color="#BD9149"/>
<stop offset="1" stop-color="#B7854D"/>
</linearGradient>
<linearGradient id="paint7_linear_91_51" x1="-4.7901" y1="54.9651" x2="100.266" y2="54.9651" gradientUnits="userSpaceOnUse">
<stop stop-color="#B7854D"/>
<stop offset="0.15" stop-color="#F5D98F"/>
<stop offset="0.3" stop-color="#FDF6B7"/>
<stop offset="0.52" stop-color="#F5D88E"/>
<stop offset="0.64" stop-color="#FCF5B7"/>
<stop offset="0.75" stop-color="#D4B067"/>
<stop offset="0.85" stop-color="#BD9149"/>
<stop offset="1" stop-color="#B7854D"/>
</linearGradient>
<linearGradient id="paint8_linear_91_51" x1="-4.79037" y1="54.9651" x2="100.266" y2="54.9651" gradientUnits="userSpaceOnUse">
<stop stop-color="#B7854D"/>
<stop offset="0.15" stop-color="#F5D98F"/>
<stop offset="0.3" stop-color="#FDF6B7"/>
<stop offset="0.52" stop-color="#F5D88E"/>
<stop offset="0.64" stop-color="#FCF5B7"/>
<stop offset="0.75" stop-color="#D4B067"/>
<stop offset="0.85" stop-color="#BD9149"/>
<stop offset="1" stop-color="#B7854D"/>
</linearGradient>
<linearGradient id="paint9_linear_91_51" x1="-4.79039" y1="54.9651" x2="100.266" y2="54.9651" gradientUnits="userSpaceOnUse">
<stop stop-color="#B7854D"/>
<stop offset="0.15" stop-color="#F5D98F"/>
<stop offset="0.3" stop-color="#FDF6B7"/>
<stop offset="0.52" stop-color="#F5D88E"/>
<stop offset="0.64" stop-color="#FCF5B7"/>
<stop offset="0.75" stop-color="#D4B067"/>
<stop offset="0.85" stop-color="#BD9149"/>
<stop offset="1" stop-color="#B7854D"/>
</linearGradient>
<linearGradient id="paint10_linear_91_51" x1="-4.79058" y1="54.2339" x2="100.266" y2="54.2339" gradientUnits="userSpaceOnUse">
<stop stop-color="#B7854D"/>
<stop offset="0.15" stop-color="#F5D98F"/>
<stop offset="0.3" stop-color="#FDF6B7"/>
<stop offset="0.52" stop-color="#F5D88E"/>
<stop offset="0.64" stop-color="#FCF5B7"/>
<stop offset="0.75" stop-color="#D4B067"/>
<stop offset="0.85" stop-color="#BD9149"/>
<stop offset="1" stop-color="#B7854D"/>
</linearGradient>
<linearGradient id="paint11_linear_91_51" x1="-4.79044" y1="54.9589" x2="100.266" y2="54.9589" gradientUnits="userSpaceOnUse">
<stop stop-color="#B7854D"/>
<stop offset="0.15" stop-color="#F5D98F"/>
<stop offset="0.3" stop-color="#FDF6B7"/>
<stop offset="0.52" stop-color="#F5D88E"/>
<stop offset="0.64" stop-color="#FCF5B7"/>
<stop offset="0.75" stop-color="#D4B067"/>
<stop offset="0.85" stop-color="#BD9149"/>
<stop offset="1" stop-color="#B7854D"/>
</linearGradient>
<linearGradient id="paint12_linear_91_51" x1="-4.79042" y1="54.9642" x2="100.266" y2="54.9642" gradientUnits="userSpaceOnUse">
<stop stop-color="#B7854D"/>
<stop offset="0.15" stop-color="#F5D98F"/>
<stop offset="0.3" stop-color="#FDF6B7"/>
<stop offset="0.52" stop-color="#F5D88E"/>
<stop offset="0.64" stop-color="#FCF5B7"/>
<stop offset="0.75" stop-color="#D4B067"/>
<stop offset="0.85" stop-color="#BD9149"/>
<stop offset="1" stop-color="#B7854D"/>
</linearGradient>
<linearGradient id="paint13_linear_91_51" x1="27.9788" y1="2.6372" x2="68.153" y2="43.6217" gradientUnits="userSpaceOnUse">
<stop stop-color="#B7854D"/>
<stop offset="0.15" stop-color="#F5D98F"/>
<stop offset="0.3" stop-color="#FDF6B7"/>
<stop offset="0.52" stop-color="#F5D88E"/>
<stop offset="0.64" stop-color="#FCF5B7"/>
<stop offset="0.75" stop-color="#D4B067"/>
<stop offset="0.85" stop-color="#BD9149"/>
<stop offset="1" stop-color="#B7854D"/>
</linearGradient>
<linearGradient id="paint14_linear_91_51" x1="47.9848" y1="37.3209" x2="50.102" y2="37.3209" gradientUnits="userSpaceOnUse">
<stop stop-color="#7F1E10"/>
<stop offset="0.1" stop-color="#7F1E10"/>
<stop offset="0.18" stop-color="#821E10"/>
<stop offset="1" stop-color="#A21E11"/>
</linearGradient>
<linearGradient id="paint15_linear_91_51" x1="41.6305" y1="31.8833" x2="41.721" y2="31.8833" gradientUnits="userSpaceOnUse">
<stop stop-color="#7F1E10"/>
<stop offset="0.1" stop-color="#7F1E10"/>
<stop offset="0.18" stop-color="#821E10"/>
<stop offset="1" stop-color="#A21E11"/>
</linearGradient>
<linearGradient id="paint16_linear_91_51" x1="48.1006" y1="35.3027" x2="49.194" y2="35.3027" gradientUnits="userSpaceOnUse">
<stop stop-color="#7F1E10"/>
<stop offset="0.1" stop-color="#7F1E10"/>
<stop offset="0.18" stop-color="#821E10"/>
<stop offset="1" stop-color="#A21E11"/>
</linearGradient>
<linearGradient id="paint17_linear_91_51" x1="49.131" y1="35.1528" x2="50.2313" y2="35.1528" gradientUnits="userSpaceOnUse">
<stop stop-color="#7F1E10"/>
<stop offset="0.1" stop-color="#7F1E10"/>
<stop offset="0.18" stop-color="#821E10"/>
<stop offset="1" stop-color="#A21E11"/>
</linearGradient>
<linearGradient id="paint18_linear_91_51" x1="42.4412" y1="37.3209" x2="44.5584" y2="37.3209" gradientUnits="userSpaceOnUse">
<stop stop-color="#7F1E10"/>
<stop offset="0.1" stop-color="#7F1E10"/>
<stop offset="0.18" stop-color="#821E10"/>
<stop offset="1" stop-color="#A21E11"/>
</linearGradient>
<linearGradient id="paint19_linear_91_51" x1="35.7903" y1="31.7712" x2="35.8809" y2="31.7712" gradientUnits="userSpaceOnUse">
<stop stop-color="#7F1E10"/>
<stop offset="0.1" stop-color="#7F1E10"/>
<stop offset="0.18" stop-color="#821E10"/>
<stop offset="1" stop-color="#A21E11"/>
</linearGradient>
<linearGradient id="paint20_linear_91_51" x1="42.5606" y1="35.3096" x2="43.654" y2="35.3096" gradientUnits="userSpaceOnUse">
<stop stop-color="#7F1E10"/>
<stop offset="0.1" stop-color="#7F1E10"/>
<stop offset="0.18" stop-color="#821E10"/>
<stop offset="1" stop-color="#A21E11"/>
</linearGradient>
<linearGradient id="paint21_linear_91_51" x1="43.5914" y1="35.1598" x2="44.6917" y2="35.1598" gradientUnits="userSpaceOnUse">
<stop stop-color="#7F1E10"/>
<stop offset="0.1" stop-color="#7F1E10"/>
<stop offset="0.18" stop-color="#821E10"/>
<stop offset="1" stop-color="#A21E11"/>
</linearGradient>
<linearGradient id="paint22_linear_91_51" x1="43.0242" y1="35.0793" x2="49.2572" y2="35.0793" gradientUnits="userSpaceOnUse">
<stop stop-color="#7F1E10"/>
<stop offset="0.1" stop-color="#7F1E10"/>
<stop offset="0.18" stop-color="#821E10"/>
<stop offset="1" stop-color="#A21E11"/>
</linearGradient>
<linearGradient id="paint23_linear_91_51" x1="35.244" y1="22.0529" x2="57.6621" y2="22.0529" gradientUnits="userSpaceOnUse">
<stop stop-color="#7F1E10"/>
<stop offset="0.1" stop-color="#7F1E10"/>
<stop offset="0.18" stop-color="#821E10"/>
<stop offset="1" stop-color="#A21E11"/>
</linearGradient>
<linearGradient id="paint24_linear_91_51" x1="34.3775" y1="16.7217" x2="50.263" y2="16.7217" gradientUnits="userSpaceOnUse">
<stop stop-color="#7F1E10"/>
<stop offset="0.1" stop-color="#7F1E10"/>
<stop offset="0.18" stop-color="#821E10"/>
<stop offset="1" stop-color="#A21E11"/>
</linearGradient>
<linearGradient id="paint25_linear_91_51" x1="46.0209" y1="23.559" x2="51.6062" y2="23.559" gradientUnits="userSpaceOnUse">
<stop stop-color="#7F1E10"/>
<stop offset="0.1" stop-color="#7F1E10"/>
<stop offset="0.18" stop-color="#821E10"/>
<stop offset="1" stop-color="#A21E11"/>
</linearGradient>
<linearGradient id="paint26_linear_91_51" x1="15.4814" y1="67.34" x2="85.9601" y2="67.34" gradientUnits="userSpaceOnUse">
<stop stop-color="#B7854D"/>
<stop offset="0.15" stop-color="#F5D98F"/>
<stop offset="0.3" stop-color="#FDF6B7"/>
<stop offset="0.52" stop-color="#F5D88E"/>
<stop offset="0.64" stop-color="#FCF5B7"/>
<stop offset="0.75" stop-color="#D4B067"/>
<stop offset="0.85" stop-color="#BD9149"/>
<stop offset="1" stop-color="#B7854D"/>
</linearGradient>
<linearGradient id="paint27_linear_91_51" x1="15.4816" y1="67.3539" x2="85.9604" y2="67.3539" gradientUnits="userSpaceOnUse">
<stop stop-color="#B7854D"/>
<stop offset="0.15" stop-color="#F5D98F"/>
<stop offset="0.3" stop-color="#FDF6B7"/>
<stop offset="0.52" stop-color="#F5D88E"/>
<stop offset="0.64" stop-color="#FCF5B7"/>
<stop offset="0.75" stop-color="#D4B067"/>
<stop offset="0.85" stop-color="#BD9149"/>
<stop offset="1" stop-color="#B7854D"/>
</linearGradient>
<linearGradient id="paint28_linear_91_51" x1="15.4817" y1="67.3678" x2="85.9604" y2="67.3678" gradientUnits="userSpaceOnUse">
<stop stop-color="#B7854D"/>
<stop offset="0.15" stop-color="#F5D98F"/>
<stop offset="0.3" stop-color="#FDF6B7"/>
<stop offset="0.52" stop-color="#F5D88E"/>
<stop offset="0.64" stop-color="#FCF5B7"/>
<stop offset="0.75" stop-color="#D4B067"/>
<stop offset="0.85" stop-color="#BD9149"/>
<stop offset="1" stop-color="#B7854D"/>
</linearGradient>
<linearGradient id="paint29_linear_91_51" x1="15.4816" y1="67.3535" x2="85.9603" y2="67.3535" gradientUnits="userSpaceOnUse">
<stop stop-color="#B7854D"/>
<stop offset="0.15" stop-color="#F5D98F"/>
<stop offset="0.3" stop-color="#FDF6B7"/>
<stop offset="0.52" stop-color="#F5D88E"/>
<stop offset="0.64" stop-color="#FCF5B7"/>
<stop offset="0.75" stop-color="#D4B067"/>
<stop offset="0.85" stop-color="#BD9149"/>
<stop offset="1" stop-color="#B7854D"/>
</linearGradient>
<linearGradient id="paint30_linear_91_51" x1="15.482" y1="67.3535" x2="85.9607" y2="67.3535" gradientUnits="userSpaceOnUse">
<stop stop-color="#B7854D"/>
<stop offset="0.15" stop-color="#F5D98F"/>
<stop offset="0.3" stop-color="#FDF6B7"/>
<stop offset="0.52" stop-color="#F5D88E"/>
<stop offset="0.64" stop-color="#FCF5B7"/>
<stop offset="0.75" stop-color="#D4B067"/>
<stop offset="0.85" stop-color="#BD9149"/>
<stop offset="1" stop-color="#B7854D"/>
</linearGradient>
<linearGradient id="paint31_linear_91_51" x1="15.4814" y1="67.34" x2="85.9601" y2="67.34" gradientUnits="userSpaceOnUse">
<stop stop-color="#B7854D"/>
<stop offset="0.15" stop-color="#F5D98F"/>
<stop offset="0.3" stop-color="#FDF6B7"/>
<stop offset="0.52" stop-color="#F5D88E"/>
<stop offset="0.64" stop-color="#FCF5B7"/>
<stop offset="0.75" stop-color="#D4B067"/>
<stop offset="0.85" stop-color="#BD9149"/>
<stop offset="1" stop-color="#B7854D"/>
</linearGradient>
<linearGradient id="paint32_linear_91_51" x1="15.4816" y1="67.3539" x2="85.9603" y2="67.3539" gradientUnits="userSpaceOnUse">
<stop stop-color="#B7854D"/>
<stop offset="0.15" stop-color="#F5D98F"/>
<stop offset="0.3" stop-color="#FDF6B7"/>
<stop offset="0.52" stop-color="#F5D88E"/>
<stop offset="0.64" stop-color="#FCF5B7"/>
<stop offset="0.75" stop-color="#D4B067"/>
<stop offset="0.85" stop-color="#BD9149"/>
<stop offset="1" stop-color="#B7854D"/>
</linearGradient>
<linearGradient id="paint33_linear_91_51" x1="15.4816" y1="67.3535" x2="85.9604" y2="67.3535" gradientUnits="userSpaceOnUse">
<stop stop-color="#B7854D"/>
<stop offset="0.15" stop-color="#F5D98F"/>
<stop offset="0.3" stop-color="#FDF6B7"/>
<stop offset="0.52" stop-color="#F5D88E"/>
<stop offset="0.64" stop-color="#FCF5B7"/>
<stop offset="0.75" stop-color="#D4B067"/>
<stop offset="0.85" stop-color="#BD9149"/>
<stop offset="1" stop-color="#B7854D"/>
</linearGradient>
<linearGradient id="paint34_linear_91_51" x1="15.4819" y1="67.3535" x2="85.9607" y2="67.3535" gradientUnits="userSpaceOnUse">
<stop stop-color="#B7854D"/>
<stop offset="0.15" stop-color="#F5D98F"/>
<stop offset="0.3" stop-color="#FDF6B7"/>
<stop offset="0.52" stop-color="#F5D88E"/>
<stop offset="0.64" stop-color="#FCF5B7"/>
<stop offset="0.75" stop-color="#D4B067"/>
<stop offset="0.85" stop-color="#BD9149"/>
<stop offset="1" stop-color="#B7854D"/>
</linearGradient>
</defs>
</svg>
