<svg width="222" height="165" viewBox="0 0 222 165" fill="none" xmlns="http://www.w3.org/2000/svg">
<mask id="mask0_6_631" style="mask-type:luminance" maskUnits="userSpaceOnUse" x="0" y="111" width="25" height="33">
<path d="M4.13414 111.814L4.16741 138.612C4.16741 139.743 4.08423 140.524 3.91788 141.024C3.71825 141.523 3.33564 141.855 2.83658 142.071C2.38743 142.238 1.63884 142.354 0.474365 142.404V143.236H24.6455V134.004H23.4477C23.2315 136.216 22.8988 137.614 22.4829 138.795C22.067 139.909 21.3517 140.658 20.4035 141.206C19.4386 141.706 18.0745 141.988 16.2446 141.988H7.51111L7.4612 111.831H4.13414V111.814Z" fill="white"/>
</mask>
<g mask="url(#mask0_6_631)">
<path d="M24.6455 111.814H0.474365V143.219H24.6455V111.814Z" fill="url(#paint0_linear_6_631)"/>
</g>
<mask id="mask1_6_631" style="mask-type:luminance" maskUnits="userSpaceOnUse" x="8" y="111" width="6" height="30">
<path d="M8.59241 111.814L8.62568 140.94H10.0397L10.0064 116.472C10.0064 115.34 10.0397 114.559 10.2559 114.06C10.4223 113.561 10.755 113.178 11.2042 113.012C11.7032 112.812 12.535 112.679 13.4998 112.646V111.814H8.59241Z" fill="white"/>
</mask>
<g mask="url(#mask1_6_631)">
<path d="M13.4998 111.814H8.59241V140.94H13.4998V111.814Z" fill="url(#paint1_linear_6_631)"/>
</g>
<mask id="mask2_6_631" style="mask-type:luminance" maskUnits="userSpaceOnUse" x="26" y="119" width="22" height="25">
<path d="M34.4437 125.304L37.5877 133.621H31.1499L34.4437 125.304ZM35.9076 119.066L35.8743 119.2L44.4581 142.271H43.46L35.3586 120.514L26.3256 143.236H31.6656V142.57C30.6009 142.537 29.9022 142.387 29.4198 142.055C28.9374 141.722 28.6878 141.356 28.6878 140.608C28.6878 139.859 28.9041 139.227 29.3533 138.079L30.7673 134.52H37.8705L41.1311 143.219H47.7186V142.554C46.6873 142.487 45.3564 141.789 44.7742 140.341L36.8724 119.05H35.8743L35.9076 119.066Z" fill="white"/>
</mask>
<g mask="url(#mask2_6_631)">
<path d="M47.7518 119.066H26.3422V143.236H47.7518V119.066Z" fill="url(#paint2_linear_6_631)"/>
</g>
<mask id="mask3_6_631" style="mask-type:luminance" maskUnits="userSpaceOnUse" x="50" y="119" width="10" height="25">
<path d="M55.7536 119.066L55.7868 142.304H54.8885L54.8552 119.066H52.3267L52.36 139.676C52.36 140.541 52.2934 141.14 52.1437 141.539C52.0106 141.922 51.7278 142.171 51.3785 142.304C50.9959 142.471 50.896 142.554 50.031 142.587V143.219H56.8848L56.8515 122.61C56.8515 121.745 56.918 121.146 57.0677 120.746C57.2008 120.364 57.4504 120.081 57.833 119.948C58.1823 119.782 58.7313 119.732 59.5963 119.699V119.05H55.7536V119.066Z" fill="white"/>
</mask>
<g mask="url(#mask3_6_631)">
<path d="M59.5963 119.066H50.031V143.236H59.5963V119.066Z" fill="url(#paint3_linear_6_631)"/>
</g>
<mask id="mask4_6_631" style="mask-type:luminance" maskUnits="userSpaceOnUse" x="63" y="118" width="14" height="20">
<path d="M65.4852 119.449C63.988 120.247 63.2727 121.495 63.1729 122.809C62.94 125.886 64.7699 127.201 65.7014 127.866C66.4334 128.348 68.5461 129.563 70.1098 130.328C71.7401 131.159 73.2872 131.925 74.2021 132.756C75.3832 133.821 76.215 135.152 76.531 136.632C76.6309 137.181 76.6309 137.364 76.5976 137.979C76.7307 137.597 76.7806 137.248 76.8138 136.798C76.8471 135.701 76.4645 134.403 76.1152 133.721C75.5163 132.607 75.0006 132.191 74.1688 131.542C73.3703 130.91 71.4406 129.945 70.6089 129.529C69.6773 129.08 66.1007 127.167 65.1358 126.169C64.3373 125.371 63.988 124.057 64.0546 123.059C64.1544 121.295 65.2357 120.497 65.9177 120.181C66.6164 119.865 67.5812 119.582 68.6625 119.599C70.1597 119.632 71.4074 120.214 72.2225 120.78C72.9877 121.395 73.4036 121.894 73.7862 122.859C74.2021 123.824 74.435 124.755 74.5182 126.036H75.483C75.483 122.809 75.5163 120.564 75.6494 119.15H74.6845C74.618 119.665 74.5514 120.081 74.4683 120.297C74.3684 120.514 74.2354 120.647 74.0191 120.647C73.7696 120.647 73.5367 120.547 73.021 120.231C72.7049 120.031 72.289 119.815 71.9563 119.649C71.3076 119.299 70.1264 118.784 68.5627 118.784C67.4814 118.784 66.317 119.017 65.4519 119.432" fill="white"/>
</mask>
<g mask="url(#mask4_6_631)">
<path d="M76.8804 118.8H62.9567V137.979H76.8804V118.8Z" fill="url(#paint4_linear_6_631)"/>
</g>
<mask id="mask5_6_631" style="mask-type:luminance" maskUnits="userSpaceOnUse" x="61" y="120" width="15" height="24">
<path d="M62.1248 121.562C61.5759 122.427 61.0602 123.441 61.0602 124.706C61.0602 125.887 61.2764 127.434 62.025 128.615C62.5407 129.48 63.2061 130.245 64.0046 130.86C65.4353 132.008 68.4795 133.422 71.241 135.019C72.0062 135.501 73.7696 136.649 73.7363 138.628C73.703 139.593 73.387 140.292 73.0043 140.774C72.3722 141.573 70.8584 142.305 68.6126 142.271C66.6663 142.271 64.8364 141.473 63.6886 140.159C62.574 138.911 62.4076 137.281 62.2413 134.969H61.2764C61.2764 139.194 61.2099 141.689 61.1434 142.937H62.1082C62.1747 142.454 62.2746 142.072 62.3577 141.855C62.4908 141.639 62.6073 141.473 62.8069 141.473C63.0564 141.473 63.0231 141.406 63.7385 141.822C64.5702 142.305 64.9528 142.438 65.2689 142.554C65.9676 142.87 67.0988 143.203 68.596 143.219C69.3612 143.253 70.3593 143.153 71.2576 143.003C72.8879 142.654 74.0357 141.889 74.8509 140.674C76.5477 138.013 75.3666 135.102 73.5699 133.538C72.7382 132.806 71.241 132.041 69.6606 131.226C68.0637 130.428 66.0508 129.347 64.9196 128.531C63.9547 127.833 61.9086 126.352 62.1581 122.743C62.2247 122.044 62.4409 121.329 62.8235 120.697C62.574 120.946 62.3078 121.246 62.0916 121.562" fill="white"/>
</mask>
<g mask="url(#mask5_6_631)">
<path d="M76.5643 120.697H61.0768V143.269H76.5643V120.697Z" fill="url(#paint5_linear_6_631)"/>
</g>
<mask id="mask6_6_631" style="mask-type:luminance" maskUnits="userSpaceOnUse" x="80" y="111" width="28" height="33">
<path d="M90.6045 119.931L94.6802 130.744H86.3126L90.6045 119.931ZM92.5176 111.814L92.4677 111.98L103.613 141.972H102.316L91.7856 113.677L80.0577 143.219H87.0113V142.338C85.6472 142.304 84.7156 142.088 84.1001 141.672C83.468 141.256 83.1519 140.757 83.1519 139.809C83.1519 138.861 83.4347 138.013 84.0336 136.516L85.8635 131.891H95.0961L99.3381 143.203H107.905V142.321C106.574 142.238 104.828 141.323 104.079 139.443L93.7985 111.781H92.501L92.5176 111.814Z" fill="white"/>
</mask>
<g mask="url(#mask6_6_631)">
<path d="M107.922 111.814H80.0909V143.219H107.922V111.814Z" fill="url(#paint6_linear_6_631)"/>
</g>
<mask id="mask7_6_631" style="mask-type:luminance" maskUnits="userSpaceOnUse" x="109" y="119" width="22" height="25">
<path d="M115.89 119.066L115.923 130.012H116.988V122.676C116.988 121.844 117.154 121.229 117.471 120.88C117.886 120.364 118.02 120.331 118.369 120.148C118.851 119.898 119.483 119.798 119.866 119.765C121.047 119.665 122.81 120.281 123.742 121.179C124.923 122.293 125.439 123.508 125.439 125.371C125.439 126.518 124.99 127.766 124.707 128.248C124.042 129.363 123.426 129.879 122.428 130.361C121.729 130.677 120.531 130.91 119.833 130.976C119.167 131.043 119.167 131.01 118.452 131.01H115.923V142.304H115.058L115.025 119.066H112.463L112.497 139.643C112.497 140.475 112.43 141.107 112.264 141.506C112.131 141.888 111.815 142.155 111.465 142.271C111.083 142.437 110.467 142.521 109.602 142.554V143.219H116.988V131.925H119.65L125.672 141.023C125.888 141.34 126.021 141.639 126.021 141.822C126.021 142.071 125.855 142.238 125.605 142.371C125.356 142.471 124.907 142.537 124.424 142.57V143.236H130.629L122.311 131.392C123.659 131.143 124.74 130.71 125.605 130.078C126.603 129.38 127.335 128.581 127.751 127.683C128.167 126.785 128.383 125.886 128.383 124.988C128.383 123.874 128.067 122.876 127.452 121.977C126.836 121.079 125.921 120.347 124.707 119.832C123.459 119.316 121.979 119.066 120.199 119.066H115.874H115.89Z" fill="white"/>
</mask>
<g mask="url(#mask7_6_631)">
<path d="M130.646 119.066H109.619V143.236H130.646V119.066Z" fill="url(#paint7_linear_6_631)"/>
</g>
<mask id="mask8_6_631" style="mask-type:luminance" maskUnits="userSpaceOnUse" x="133" y="119" width="22" height="25">
<path d="M139.346 119.066L139.379 130.012H140.427V122.676C140.427 121.844 140.594 121.229 140.91 120.88C141.326 120.364 141.459 120.331 141.808 120.148C142.29 119.898 142.923 119.798 143.305 119.765C144.486 119.665 146.25 120.281 147.181 121.179C148.362 122.293 148.878 123.508 148.878 125.371C148.878 126.518 148.429 127.766 148.146 128.248C147.481 129.363 146.865 129.879 145.867 130.361C145.168 130.677 143.971 130.91 143.272 130.976C142.607 131.043 142.607 131.01 141.891 131.01H139.363V142.304H138.498L138.464 119.066H135.903L135.936 139.643C135.936 140.475 135.869 141.107 135.703 141.506C135.57 141.888 135.254 142.155 134.904 142.271C134.522 142.437 133.906 142.521 133.041 142.554V143.219H140.444V131.925H143.106L149.128 141.023C149.36 141.34 149.477 141.639 149.477 141.822C149.477 142.071 149.311 142.238 149.061 142.371C148.812 142.471 148.362 142.537 147.88 142.57V143.236H154.085L145.767 131.392C147.115 131.143 148.196 130.71 149.061 130.078C150.059 129.38 150.791 128.581 151.207 127.683C151.623 126.785 151.839 125.886 151.839 124.988C151.839 123.874 151.523 122.876 150.908 121.977C150.292 121.079 149.377 120.347 148.163 119.832C146.915 119.316 145.435 119.066 143.655 119.066H139.329H139.346Z" fill="white"/>
</mask>
<g mask="url(#mask8_6_631)">
<path d="M154.101 119.066H133.074V143.236H154.101V119.066Z" fill="url(#paint8_linear_6_631)"/>
</g>
<mask id="mask9_6_631" style="mask-type:luminance" maskUnits="userSpaceOnUse" x="155" y="119" width="21" height="25">
<path d="M171.835 119.066L171.868 133.272C171.868 136.05 171.452 138.329 170.354 139.959C169.356 141.489 167.693 142.271 165.463 142.271C164.915 142.271 164.665 142.271 164 142.171C162.469 142.005 161.271 141.439 160.44 140.608C159.026 139.227 158.46 136.832 158.46 132.806C158.46 132.008 158.46 121.828 158.427 119.066H155.898V132.989C155.898 134.586 155.965 135.867 156.114 136.865C156.248 137.863 156.63 138.695 157.013 139.393C157.362 140.092 158.011 140.84 158.71 141.406C160.057 142.554 161.721 143.269 165.181 143.236C166.877 143.203 167.909 142.953 169.023 142.371C170.105 141.789 170.82 141.023 171.386 140.075C171.901 139.21 172.251 138.212 172.467 137.065C172.7 135.884 172.783 134.47 172.783 132.873V123.009C172.783 122.11 172.85 121.478 172.999 121.029C173.132 120.58 173.382 120.231 173.764 120.031C174.147 119.832 174.63 119.715 175.528 119.682V119.066H171.818H171.835Z" fill="white"/>
</mask>
<g mask="url(#mask9_6_631)">
<path d="M175.561 119.066H155.898V143.269H175.561V119.066Z" fill="url(#paint9_linear_6_631)"/>
</g>
<mask id="mask10_6_631" style="mask-type:luminance" maskUnits="userSpaceOnUse" x="159" y="119" width="5" height="21">
<path d="M159.325 119.066L159.358 132.773C159.358 136.299 159.907 138.528 160.922 139.743C160.722 139.077 160.639 138.329 160.573 137.83C160.44 136.765 160.406 135.368 160.406 133.538V122.659C160.406 121.794 160.473 121.196 160.606 120.796C160.739 120.414 160.989 120.098 161.371 119.931C161.754 119.798 162.336 119.732 163.168 119.715V119.083H159.325V119.066Z" fill="white"/>
</mask>
<g mask="url(#mask10_6_631)">
<path d="M163.168 119.066H159.325V139.743H163.168V119.066Z" fill="url(#paint10_linear_6_631)"/>
</g>
<mask id="mask11_6_631" style="mask-type:luminance" maskUnits="userSpaceOnUse" x="175" y="119" width="24" height="25">
<path d="M184.345 119.066H182.132V141.473H183.213V122.942C183.213 122.144 183.313 121.761 183.446 121.379C183.579 120.963 183.895 120.68 184.112 120.547C184.977 119.965 185.842 119.848 187.056 119.881C189.002 119.915 191.764 120.913 193.394 123.441C194.675 125.321 195.224 127.882 195.191 130.777C195.191 133.621 194.642 136.066 193.743 137.73C192.779 139.526 191.697 140.541 190.25 141.29C188.553 142.121 186.441 142.321 184.777 142.321H181.217V119.116L178.655 119.083L178.689 139.659C178.689 140.524 178.622 141.14 178.472 141.522C178.339 141.905 178.056 142.188 177.707 142.321C177.324 142.487 176.842 142.537 175.877 142.57V143.236L183.297 143.269C184.195 143.269 185.06 143.236 185.376 143.236C187.938 143.236 189.468 143.053 190.882 142.587C192.895 141.922 195.274 140.857 196.937 137.43C197.836 135.534 198.385 133.305 198.385 130.81C198.385 127.65 197.719 124.506 195.407 122.044C193.461 119.998 190.766 119.066 186.757 119.066L184.328 119.1L184.345 119.066Z" fill="white"/>
</mask>
<g mask="url(#mask11_6_631)">
<path d="M198.401 119.033H175.894V143.236H198.401V119.033Z" fill="url(#paint11_linear_6_631)"/>
</g>
<mask id="mask12_6_631" style="mask-type:luminance" maskUnits="userSpaceOnUse" x="200" y="119" width="22" height="25">
<path d="M208.2 125.304L211.344 133.621H204.906L208.2 125.304ZM209.664 119.066L209.63 119.2L218.214 142.271H217.216L209.115 120.514L200.082 143.236H205.422V142.57C204.373 142.537 203.658 142.371 203.176 142.055C202.693 141.739 202.444 141.356 202.444 140.608C202.444 139.859 202.66 139.227 203.109 138.079L204.523 134.52H211.626L214.887 143.219H221.475V142.554C220.443 142.487 219.112 141.789 218.53 140.341L210.628 119.05H209.63L209.664 119.066Z" fill="white"/>
</mask>
<g mask="url(#mask12_6_631)">
<path d="M221.508 119.066H200.098V143.236H221.508V119.066Z" fill="url(#paint12_linear_6_631)"/>
</g>
<mask id="mask13_6_631" style="mask-type:luminance" maskUnits="userSpaceOnUse" x="67" y="0" width="88" height="105">
<path d="M67.5812 15.9015V62.4771H67.6478C69.4777 85.715 110.999 104.312 110.999 104.312C110.999 104.312 152.505 85.715 154.351 62.4771H154.418V60.9135V15.9015L111.232 0.115723L67.5979 15.9015H67.5812Z" fill="white"/>
</mask>
<g mask="url(#mask13_6_631)">
<path d="M111.874 -43.2679L15.5089 51.1924L110.151 147.729L206.516 53.269L111.874 -43.2679Z" fill="url(#paint13_linear_6_631)"/>
</g>
<mask id="mask14_6_631" style="mask-type:luminance" maskUnits="userSpaceOnUse" x="115" y="87" width="6" height="3">
<path d="M115.641 87.4946C115.94 88.4428 116.955 89.1414 118.169 89.1414C119.384 89.1414 120.382 88.4428 120.698 87.4946H115.641Z" fill="white"/>
</mask>
<g mask="url(#mask14_6_631)">
<path d="M120.698 87.4946H115.641V89.1414H120.698V87.4946Z" fill="url(#paint14_linear_6_631)"/>
</g>
<mask id="mask15_6_631" style="mask-type:luminance" maskUnits="userSpaceOnUse" x="118" y="78" width="1" height="11">
<path d="M118.069 78.6452V87.977C118.069 87.977 118.103 88.0934 118.169 88.0934C118.169 88.0934 118.286 88.0435 118.286 87.9936V78.6618C118.286 78.6618 118.252 78.5454 118.186 78.5454C118.186 78.5454 118.086 78.5953 118.086 78.6452" fill="white"/>
</mask>
<g mask="url(#mask15_6_631)">
<path d="M118.286 78.5454H118.069V88.0934H118.286V78.5454Z" fill="url(#paint15_linear_6_631)"/>
</g>
<mask id="mask16_6_631" style="mask-type:luminance" maskUnits="userSpaceOnUse" x="115" y="78" width="4" height="10">
<path d="M118.069 78.6125L115.674 87.4452C115.674 87.4452 115.691 87.5616 115.757 87.5783C115.757 87.5783 115.774 87.5783 115.79 87.5783C115.84 87.5783 115.89 87.545 115.89 87.4951L118.286 78.6624C118.286 78.6624 118.269 78.5459 118.203 78.5293C118.203 78.5293 118.186 78.5293 118.169 78.5293C118.119 78.5293 118.086 78.5626 118.069 78.6125Z" fill="white"/>
</mask>
<g mask="url(#mask16_6_631)">
<path d="M118.286 78.5454H115.641V87.5944H118.286V78.5454Z" fill="url(#paint16_linear_6_631)"/>
</g>
<mask id="mask17_6_631" style="mask-type:luminance" maskUnits="userSpaceOnUse" x="118" y="78" width="3" height="10">
<path d="M118.136 78.5454C118.136 78.5454 118.036 78.6119 118.053 78.6785L120.465 87.5112C120.465 87.5112 120.515 87.5944 120.565 87.5944C120.565 87.5944 120.581 87.5944 120.598 87.5944C120.648 87.5944 120.681 87.5112 120.665 87.4613L118.252 78.6286C118.252 78.6286 118.186 78.5454 118.153 78.5454C118.153 78.5454 118.136 78.5454 118.119 78.5454" fill="white"/>
</mask>
<g mask="url(#mask17_6_631)">
<path d="M120.715 78.5454H118.053V87.5944H120.715V78.5454Z" fill="url(#paint17_linear_6_631)"/>
</g>
<mask id="mask18_6_631" style="mask-type:luminance" maskUnits="userSpaceOnUse" x="102" y="87" width="6" height="3">
<path d="M102.399 87.4946C102.715 88.4428 103.73 89.1414 104.927 89.1414C106.125 89.1414 107.14 88.4428 107.456 87.4946H102.399Z" fill="white"/>
</mask>
<g mask="url(#mask18_6_631)">
<path d="M107.456 87.4946H102.399V89.1414H107.456V87.4946Z" fill="url(#paint18_linear_6_631)"/>
</g>
<mask id="mask19_6_631" style="mask-type:luminance" maskUnits="userSpaceOnUse" x="104" y="78" width="2" height="11">
<path d="M104.828 78.6452V87.977C104.828 87.977 104.861 88.0934 104.928 88.0934C104.928 88.0934 105.027 88.0435 105.044 87.9936V78.6618C105.044 78.6618 105.011 78.5454 104.944 78.5454C104.944 78.5454 104.828 78.5953 104.828 78.6452Z" fill="white"/>
</mask>
<g mask="url(#mask19_6_631)">
<path d="M105.044 78.5454H104.828V88.0934H105.044V78.5454Z" fill="url(#paint19_linear_6_631)"/>
</g>
<mask id="mask20_6_631" style="mask-type:luminance" maskUnits="userSpaceOnUse" x="102" y="78" width="4" height="10">
<path d="M104.828 78.6125L102.432 87.4452C102.432 87.4452 102.449 87.5616 102.515 87.5783C102.515 87.5783 102.532 87.5783 102.549 87.5783C102.599 87.5783 102.649 87.545 102.649 87.4951L105.044 78.6624C105.044 78.6624 105.027 78.5459 104.961 78.5293C104.961 78.5293 104.944 78.5293 104.928 78.5293C104.878 78.5293 104.828 78.5626 104.828 78.6125Z" fill="white"/>
</mask>
<g mask="url(#mask20_6_631)">
<path d="M105.061 78.5454H102.416V87.5944H105.061V78.5454Z" fill="url(#paint20_linear_6_631)"/>
</g>
<mask id="mask21_6_631" style="mask-type:luminance" maskUnits="userSpaceOnUse" x="104" y="78" width="4" height="10">
<path d="M104.894 78.5454C104.894 78.5454 104.794 78.6119 104.811 78.6785L107.223 87.5112C107.223 87.5112 107.273 87.5944 107.323 87.5944C107.323 87.5944 107.34 87.5944 107.356 87.5944C107.423 87.5944 107.456 87.5112 107.439 87.4613L105.027 78.6286C105.027 78.6286 104.977 78.5454 104.928 78.5454C104.928 78.5454 104.911 78.5454 104.894 78.5454Z" fill="white"/>
</mask>
<g mask="url(#mask21_6_631)">
<path d="M107.473 78.5454H104.811V87.5944H107.473V78.5454Z" fill="url(#paint21_linear_6_631)"/>
</g>
<mask id="mask22_6_631" style="mask-type:luminance" maskUnits="userSpaceOnUse" x="104" y="73" width="16" height="20">
<path d="M110.983 75.7013C110.983 75.2189 111.548 74.8197 111.548 74.8197C111.548 74.8197 112.114 75.2189 112.114 75.7013C112.114 76.1837 111.548 76.5829 111.548 76.5829C111.548 76.5829 110.983 76.1837 110.983 75.7013ZM110.384 75.7013C110.384 75.7013 110.384 75.7845 110.384 75.8344C109.253 76.0506 108.255 76.6328 106.907 77.531C106.092 78.08 105.277 78.6954 104.811 78.6123C104.761 78.6123 104.728 78.579 104.678 78.5624C104.844 78.4958 104.944 78.3461 104.944 78.1632C104.944 77.9303 104.745 77.7307 104.512 77.7307C104.279 77.7307 104.096 77.9136 104.079 78.1465C104.046 78.396 104.196 78.6788 104.628 78.8285C105.36 79.0614 106.558 78.4127 107.29 78.0134C107.939 77.6641 108.537 77.4146 109.12 77.2483C110.567 77.0154 111.066 78.0634 111.232 78.5291C111.016 78.6289 110.883 78.8452 110.883 79.1113C110.883 79.3774 111.033 79.5937 111.266 79.6935V86.2473C111.033 86.3471 110.883 86.5634 110.883 86.8295C110.883 87.0957 111.033 87.2953 111.249 87.4117C111.149 88.5262 110.633 90.9049 107.939 91.3207C107.523 91.3207 107.157 91.6202 107.09 92.0194H116.007C115.924 91.6202 115.574 91.3207 115.158 91.3207C112.447 90.9049 111.931 88.5096 111.848 87.4117C112.064 87.3119 112.214 87.0957 112.214 86.8295C112.214 86.5634 112.064 86.3471 111.831 86.2473V79.6935C112.047 79.5937 112.214 79.3608 112.214 79.1113C112.214 78.8618 112.064 78.6455 111.865 78.5291C112.014 78.0634 112.53 77.0154 113.961 77.2483C114.543 77.4146 115.142 77.6641 115.79 78.0134C116.539 78.4127 117.737 79.0614 118.452 78.8285C118.885 78.6788 119.034 78.396 119.001 78.1465C119.001 77.9136 118.801 77.7307 118.569 77.7307C118.336 77.7307 118.136 77.9303 118.136 78.1632C118.136 78.3461 118.252 78.4958 118.419 78.5624C118.386 78.579 118.336 78.5956 118.286 78.6123C117.82 78.6954 117.005 78.08 116.19 77.531C114.826 76.6162 113.827 76.0506 112.713 75.8344C112.713 75.7845 112.713 75.7512 112.713 75.7013C112.713 74.7032 111.548 73.8882 111.548 73.8882C111.548 73.8882 110.401 74.7032 110.401 75.7013" fill="white"/>
</mask>
<g mask="url(#mask22_6_631)">
<path d="M119.018 73.8882H104.079V92.0194H119.018V73.8882Z" fill="url(#paint22_linear_6_631)"/>
</g>
<mask id="mask23_6_631" style="mask-type:luminance" maskUnits="userSpaceOnUse" x="85" y="27" width="54" height="51">
<path d="M123.11 27.6455C120.531 27.9948 118.336 28.6435 116.556 29.5917C114.776 30.5398 113.345 31.7874 112.297 33.3344C111.249 34.8813 110.633 36.5281 110.484 38.2581C110.367 39.489 110.534 40.4371 110.983 41.1025C111.415 41.7679 112.047 42.1338 112.879 42.2003C113.461 42.2502 113.977 42.1005 114.426 41.7179C114.875 41.352 115.125 40.8862 115.175 40.3706C115.208 39.9547 115.108 39.2894 114.842 38.3745C114.593 37.5428 114.493 36.9273 114.543 36.4782C114.659 35.1475 115.291 33.8999 116.423 32.7023C117.554 31.5212 119.151 30.6895 121.247 30.2238C122.761 29.8744 126.52 29.7081 132.526 29.7081C127.718 34.2326 121.297 41.5849 113.278 51.765C111.881 53.5282 110.567 55.175 109.319 56.6887C108.87 57.2376 108.438 57.7699 108.005 58.2689C106.924 59.5664 105.876 60.7807 104.911 61.8785C104.379 62.4774 103.88 63.0429 103.38 63.5752C101.035 66.1369 99.0553 68.0498 97.4749 69.2973C95.3622 70.9608 93.4824 71.7093 91.8688 71.5596C91.3864 71.5097 90.4382 71.2602 89.0242 70.7944C88.4586 70.6281 88.0094 70.5116 87.6601 70.495C87.0778 70.4451 86.5788 70.6114 86.1629 70.9774C85.747 71.3433 85.4975 71.859 85.4476 72.4745C85.381 73.2895 85.6472 74.0048 86.2627 74.5704C86.8782 75.1526 87.8597 75.5019 89.2238 75.6183C91.8023 75.8512 94.6303 74.903 97.7078 72.7572C99.2383 71.6927 102.965 67.6339 106.342 63.8247C106.857 63.2425 107.356 62.677 107.839 62.128C108.903 60.9137 109.885 59.7826 110.683 58.8511C111.216 58.2356 111.665 57.7034 112.014 57.2875C112.513 56.6887 112.813 56.3394 112.813 56.3394H117.687C117.637 56.173 117.57 56.0067 117.487 55.8071C117.154 54.9754 116.955 54.2601 116.905 53.6446H115.009L125.555 40.7199C126.37 39.7219 128.5 37.3432 131.927 33.5506L132.941 32.5525C130.929 38.4743 126.404 53.5947 126.404 53.5947H125.173C125.223 53.9607 125.256 54.3433 125.256 54.7258C125.256 55.2581 125.206 55.7738 125.123 56.2728H125.755C125.755 56.2728 124.657 60.8805 124.208 64.3736C123.842 67.2513 124.258 69.63 125.023 71.5263C125.788 73.4392 126.953 74.903 128.516 75.951C130.33 77.1487 132.209 77.5811 134.139 77.2318C136.069 76.8825 137.45 76.1007 138.248 74.8698C138.564 74.404 138.681 73.905 138.614 73.3893C138.548 72.8737 138.315 72.4745 137.915 72.2083C137.549 71.9588 137.1 71.9089 136.601 72.0253C136.219 72.1251 135.537 72.6075 134.538 73.4559C132.858 74.9197 131.328 75.1858 129.93 74.2709C128.5 73.3228 128.217 71.543 128.017 68.8482C127.818 66.1535 131.71 52.0145 134.339 43.1651C138.148 30.3568 138.398 29.7081 138.947 27.6787C139.296 27.5457 136.219 27.4625 136.219 27.4625C134.206 27.4459 131.76 27.4459 130.147 27.4292C129.415 27.4292 128.733 27.4126 128.101 27.4126C125.871 27.4126 124.225 27.4958 123.193 27.6455" fill="white"/>
</mask>
<g mask="url(#mask23_6_631)">
<path d="M139.23 27.4126H85.2979V77.5812H139.23V27.4126Z" fill="url(#paint23_linear_6_631)"/>
</g>
<mask id="mask24_6_631" style="mask-type:luminance" maskUnits="userSpaceOnUse" x="83" y="17" width="39" height="45">
<path d="M105.377 20.5258C102.466 22.6549 100.02 25.9318 98.0572 30.3399C96.7763 33.2675 95.3456 38.0748 93.7653 44.7284C92.5842 49.7686 91.6359 53.0954 90.9539 54.7089C90.2552 56.3224 89.49 57.4369 88.625 58.069C87.7599 58.7011 86.0631 59.25 83.5179 59.7324L83.0854 61.6952C85.8302 61.2794 88.9743 61.0798 92.5343 61.0798C94.3475 61.0798 97.7078 61.2794 102.582 61.6786C103.613 60.5308 104.711 59.2667 105.892 57.8694C105.809 57.8694 105.726 57.8527 105.66 57.8361C104.562 57.6698 103.38 57.6032 102.1 57.6032C100.037 57.6032 97.2753 57.9858 93.8152 58.7344C94.78 57.6199 95.6118 56.2226 96.2938 54.5259C97.242 52.1472 98.6228 47.34 100.453 40.1041C101.617 35.5464 102.582 32.2694 103.331 30.29C104.495 27.3624 105.61 25.15 106.691 23.653C107.772 22.1725 108.77 21.1578 109.719 20.6256C110.401 20.243 111.083 20.0434 111.781 20.0434C112.38 20.0434 113.012 20.1931 113.644 20.5091C114.293 20.8252 115.192 21.4905 116.356 22.5052C117.387 23.4534 118.286 23.9191 119.001 23.9191C119.55 23.9191 120.032 23.7195 120.432 23.3036C120.831 22.8878 121.031 22.3888 121.031 21.8066C121.031 20.7586 120.382 19.7606 119.068 18.7958C117.753 17.831 116.14 17.3486 114.227 17.3486C111.249 17.3486 108.288 18.4132 105.377 20.5424" fill="white"/>
</mask>
<g mask="url(#mask24_6_631)">
<path d="M121.031 17.332H83.0854V61.7119H121.031V17.332Z" fill="url(#paint24_linear_6_631)"/>
</g>
<mask id="mask25_6_631" style="mask-type:luminance" maskUnits="userSpaceOnUse" x="109" y="51" width="15" height="12">
<path d="M119.201 51.6983C119.201 51.6983 119.134 51.7648 119.101 51.8147C118.785 52.1807 118.618 52.6631 118.618 53.2619C118.618 53.3784 118.618 53.5114 118.652 53.6445C118.718 54.0437 118.851 54.5427 119.084 55.1249C119.267 55.5741 119.4 55.9733 119.483 56.3226C119.55 56.6054 119.583 56.8549 119.583 57.0711C119.583 57.4537 119.5 57.8197 119.317 58.1524C119.151 58.4684 118.918 58.7512 118.618 59.0173C117.97 59.5829 117.188 59.8823 116.273 59.8823C115.508 59.8823 114.277 59.6993 112.58 59.3334C111.881 60.1651 110.983 61.1964 109.985 62.3442C111.399 62.444 112.613 62.4939 113.628 62.4939C116.606 62.4939 118.968 61.7287 120.714 60.1983C121.446 59.5663 122.029 58.8676 122.445 58.1357C122.777 57.5535 123.01 56.9547 123.16 56.306C123.276 55.8069 123.326 55.2913 123.326 54.759C123.326 54.3598 123.293 53.9772 123.226 53.6445C123.11 53.0457 122.894 52.5467 122.561 52.1308C122.478 52.0144 122.378 51.9146 122.278 51.8314C121.829 51.3989 121.297 51.166 120.698 51.166C120.066 51.166 119.567 51.349 119.167 51.7316" fill="white"/>
</mask>
<g mask="url(#mask25_6_631)">
<path d="M123.359 51.1328H110.018V62.4773H123.359V51.1328Z" fill="url(#paint25_linear_6_631)"/>
</g>
<mask id="mask26_6_631" style="mask-type:luminance" maskUnits="userSpaceOnUse" x="52" y="154" width="10" height="11">
<path d="M56.9679 156.277L58.8144 160.884H55.1214L56.9679 156.277ZM56.186 154.347L52.2435 164.278H53.8571L54.589 162.381H59.4133L60.1452 164.278H61.8088L57.8496 154.347H56.2027H56.186Z" fill="white"/>
</mask>
<g mask="url(#mask26_6_631)">
<path d="M61.7922 154.347H52.2269V164.278H61.7922V154.347Z" fill="url(#paint26_linear_6_631)"/>
</g>
<mask id="mask27_6_631" style="mask-type:luminance" maskUnits="userSpaceOnUse" x="66" y="154" width="10" height="11">
<path d="M68.0637 155.944H69.8437C72.8214 155.944 73.4702 156.776 73.4702 159.338C73.4702 161.899 72.6883 162.781 69.7938 162.781H68.0637V155.944ZM66.4501 154.414V164.278H69.7106C73.5201 164.278 75.1004 163.13 75.1004 159.338C75.1004 155.545 73.6199 154.414 69.827 154.414H66.4667H66.4501Z" fill="white"/>
</mask>
<g mask="url(#mask27_6_631)">
<path d="M75.1004 154.414H66.4501V164.278H75.1004V154.414Z" fill="url(#paint27_linear_6_631)"/>
</g>
<mask id="mask28_6_631" style="mask-type:luminance" maskUnits="userSpaceOnUse" x="78" y="154" width="11" height="11">
<path d="M86.6453 154.414L83.601 162.315L80.5401 154.414H78.8433L82.7526 164.345H84.3995L88.3421 154.414H86.6453Z" fill="white"/>
</mask>
<g mask="url(#mask28_6_631)">
<path d="M88.3421 154.414H78.8433V164.345H88.3421V154.414Z" fill="url(#paint28_linear_6_631)"/>
</g>
<mask id="mask29_6_631" style="mask-type:luminance" maskUnits="userSpaceOnUse" x="92" y="154" width="11" height="11">
<path d="M93.6654 159.371C93.6654 157.125 94.6635 155.811 97.1255 155.811C99.5876 155.811 100.602 157.109 100.602 159.371C100.602 161.633 99.6042 162.931 97.1255 162.931C94.6469 162.931 93.6654 161.633 93.6654 159.371ZM92.0518 159.338C92.0518 162.964 93.9815 164.428 97.1422 164.428C100.303 164.428 102.233 162.964 102.233 159.338C102.233 155.711 100.286 154.264 97.1422 154.264C93.9981 154.264 92.0518 155.728 92.0518 159.338Z" fill="white"/>
</mask>
<g mask="url(#mask29_6_631)">
<path d="M102.233 154.264H92.0518V164.444H102.233V154.264Z" fill="url(#paint29_linear_6_631)"/>
</g>
<mask id="mask30_6_631" style="mask-type:luminance" maskUnits="userSpaceOnUse" x="106" y="154" width="11" height="11">
<path d="M106.591 159.338C106.591 162.648 107.822 164.428 111.532 164.428C115.241 164.428 116.057 162.847 116.057 160.086V158.689H111.415V160.136H114.46V160.386C114.46 162.132 113.877 162.98 111.598 162.98C109.02 162.98 108.188 161.799 108.188 159.354C108.188 156.909 109.253 155.811 111.615 155.811C112.996 155.811 113.711 156.244 114.26 156.759L115.408 155.578C114.709 154.863 113.561 154.264 111.615 154.264C108.388 154.264 106.574 155.794 106.574 159.338" fill="white"/>
</mask>
<g mask="url(#mask30_6_631)">
<path d="M116.057 154.264H106.591V164.428H116.057V154.264Z" fill="url(#paint30_linear_6_631)"/>
</g>
<mask id="mask31_6_631" style="mask-type:luminance" maskUnits="userSpaceOnUse" x="119" y="154" width="11" height="11">
<path d="M124.491 156.277L126.337 160.884H122.644L124.491 156.277ZM123.692 154.347L119.75 164.278H121.363L122.095 162.381H126.919L127.651 164.278H129.315L125.356 154.347H123.709H123.692Z" fill="white"/>
</mask>
<g mask="url(#mask31_6_631)">
<path d="M129.298 154.347H119.733V164.278H129.298V154.347Z" fill="url(#paint31_linear_6_631)"/>
</g>
<mask id="mask32_6_631" style="mask-type:luminance" maskUnits="userSpaceOnUse" x="133" y="154" width="10" height="11">
<path d="M135.57 155.944H137.35C140.327 155.944 140.976 156.776 140.976 159.338C140.976 161.899 140.194 162.781 137.283 162.781H135.553V155.944H135.57ZM133.973 154.414V164.278H137.233C141.043 164.278 142.623 163.13 142.623 159.338C142.623 155.545 141.143 154.414 137.35 154.414H133.989H133.973Z" fill="white"/>
</mask>
<g mask="url(#mask32_6_631)">
<path d="M142.623 154.414H133.973V164.278H142.623V154.414Z" fill="url(#paint32_linear_6_631)"/>
</g>
<mask id="mask33_6_631" style="mask-type:luminance" maskUnits="userSpaceOnUse" x="146" y="154" width="12" height="11">
<path d="M148.595 159.371C148.595 157.125 149.593 155.811 152.055 155.811C154.517 155.811 155.532 157.109 155.532 159.371C155.532 161.633 154.534 162.931 152.055 162.931C149.577 162.931 148.595 161.633 148.595 159.371ZM146.965 159.338C146.965 162.964 148.895 164.428 152.039 164.428C155.183 164.428 157.129 162.964 157.129 159.338C157.129 155.711 155.183 154.264 152.039 154.264C148.895 154.264 146.965 155.728 146.965 159.338Z" fill="white"/>
</mask>
<g mask="url(#mask33_6_631)">
<path d="M157.146 154.264H146.965V164.444H157.146V154.264Z" fill="url(#paint33_linear_6_631)"/>
</g>
<mask id="mask34_6_631" style="mask-type:luminance" maskUnits="userSpaceOnUse" x="161" y="154" width="9" height="11">
<path d="M161.754 157.092C161.754 159.171 163.151 159.587 165.53 159.953C167.16 160.203 168.158 160.402 168.158 161.467C168.158 162.531 167.526 162.997 165.547 162.997C164.316 162.997 163.135 162.698 162.02 161.966L161.205 163.197C162.386 164.028 163.866 164.411 165.58 164.411C168.574 164.411 169.739 163.38 169.739 161.384C169.739 159.221 168.175 158.855 165.913 158.489C164.249 158.223 163.334 158.04 163.334 157.042C163.334 156.127 163.9 155.745 165.563 155.745C166.661 155.745 167.759 156.061 168.425 156.51L169.29 155.196C168.524 154.68 167.343 154.264 165.58 154.264C163.018 154.264 161.754 155.029 161.754 157.092Z" fill="white"/>
</mask>
<g mask="url(#mask34_6_631)">
<path d="M169.755 154.264H161.221V164.411H169.755V154.264Z" fill="url(#paint34_linear_6_631)"/>
</g>
<defs>
<linearGradient id="paint0_linear_6_631" x1="-10.9682" y1="127.782" x2="239.976" y2="127.782" gradientUnits="userSpaceOnUse">
<stop stop-color="#B7854D"/>
<stop offset="0.15" stop-color="#F5D98F"/>
<stop offset="0.3" stop-color="#FDF6B7"/>
<stop offset="0.52" stop-color="#F5D88E"/>
<stop offset="0.64" stop-color="#FCF5B7"/>
<stop offset="0.75" stop-color="#D4B067"/>
<stop offset="0.85" stop-color="#BD9149"/>
<stop offset="1" stop-color="#B7854D"/>
</linearGradient>
<linearGradient id="paint1_linear_6_631" x1="-10.9682" y1="126.634" x2="239.976" y2="126.634" gradientUnits="userSpaceOnUse">
<stop stop-color="#B7854D"/>
<stop offset="0.15" stop-color="#F5D98F"/>
<stop offset="0.3" stop-color="#FDF6B7"/>
<stop offset="0.52" stop-color="#F5D88E"/>
<stop offset="0.64" stop-color="#FCF5B7"/>
<stop offset="0.75" stop-color="#D4B067"/>
<stop offset="0.85" stop-color="#BD9149"/>
<stop offset="1" stop-color="#B7854D"/>
</linearGradient>
<linearGradient id="paint2_linear_6_631" x1="-10.9684" y1="131.391" x2="239.975" y2="131.391" gradientUnits="userSpaceOnUse">
<stop stop-color="#B7854D"/>
<stop offset="0.15" stop-color="#F5D98F"/>
<stop offset="0.3" stop-color="#FDF6B7"/>
<stop offset="0.52" stop-color="#F5D88E"/>
<stop offset="0.64" stop-color="#FCF5B7"/>
<stop offset="0.75" stop-color="#D4B067"/>
<stop offset="0.85" stop-color="#BD9149"/>
<stop offset="1" stop-color="#B7854D"/>
</linearGradient>
<linearGradient id="paint3_linear_6_631" x1="-10.9682" y1="131.391" x2="239.976" y2="131.391" gradientUnits="userSpaceOnUse">
<stop stop-color="#B7854D"/>
<stop offset="0.15" stop-color="#F5D98F"/>
<stop offset="0.3" stop-color="#FDF6B7"/>
<stop offset="0.52" stop-color="#F5D88E"/>
<stop offset="0.64" stop-color="#FCF5B7"/>
<stop offset="0.75" stop-color="#D4B067"/>
<stop offset="0.85" stop-color="#BD9149"/>
<stop offset="1" stop-color="#B7854D"/>
</linearGradient>
<linearGradient id="paint4_linear_6_631" x1="-10.9682" y1="128.647" x2="239.976" y2="128.647" gradientUnits="userSpaceOnUse">
<stop stop-color="#B7854D"/>
<stop offset="0.15" stop-color="#F5D98F"/>
<stop offset="0.3" stop-color="#FDF6B7"/>
<stop offset="0.52" stop-color="#F5D88E"/>
<stop offset="0.64" stop-color="#FCF5B7"/>
<stop offset="0.75" stop-color="#D4B067"/>
<stop offset="0.85" stop-color="#BD9149"/>
<stop offset="1" stop-color="#B7854D"/>
</linearGradient>
<linearGradient id="paint5_linear_6_631" x1="-10.9682" y1="132.223" x2="239.976" y2="132.223" gradientUnits="userSpaceOnUse">
<stop stop-color="#B7854D"/>
<stop offset="0.15" stop-color="#F5D98F"/>
<stop offset="0.3" stop-color="#FDF6B7"/>
<stop offset="0.52" stop-color="#F5D88E"/>
<stop offset="0.64" stop-color="#FCF5B7"/>
<stop offset="0.75" stop-color="#D4B067"/>
<stop offset="0.85" stop-color="#BD9149"/>
<stop offset="1" stop-color="#B7854D"/>
</linearGradient>
<linearGradient id="paint6_linear_6_631" x1="-10.9683" y1="127.782" x2="239.975" y2="127.782" gradientUnits="userSpaceOnUse">
<stop stop-color="#B7854D"/>
<stop offset="0.15" stop-color="#F5D98F"/>
<stop offset="0.3" stop-color="#FDF6B7"/>
<stop offset="0.52" stop-color="#F5D88E"/>
<stop offset="0.64" stop-color="#FCF5B7"/>
<stop offset="0.75" stop-color="#D4B067"/>
<stop offset="0.85" stop-color="#BD9149"/>
<stop offset="1" stop-color="#B7854D"/>
</linearGradient>
<linearGradient id="paint7_linear_6_631" x1="-10.9683" y1="131.408" x2="239.976" y2="131.408" gradientUnits="userSpaceOnUse">
<stop stop-color="#B7854D"/>
<stop offset="0.15" stop-color="#F5D98F"/>
<stop offset="0.3" stop-color="#FDF6B7"/>
<stop offset="0.52" stop-color="#F5D88E"/>
<stop offset="0.64" stop-color="#FCF5B7"/>
<stop offset="0.75" stop-color="#D4B067"/>
<stop offset="0.85" stop-color="#BD9149"/>
<stop offset="1" stop-color="#B7854D"/>
</linearGradient>
<linearGradient id="paint8_linear_6_631" x1="-10.9684" y1="131.408" x2="239.975" y2="131.408" gradientUnits="userSpaceOnUse">
<stop stop-color="#B7854D"/>
<stop offset="0.15" stop-color="#F5D98F"/>
<stop offset="0.3" stop-color="#FDF6B7"/>
<stop offset="0.52" stop-color="#F5D88E"/>
<stop offset="0.64" stop-color="#FCF5B7"/>
<stop offset="0.75" stop-color="#D4B067"/>
<stop offset="0.85" stop-color="#BD9149"/>
<stop offset="1" stop-color="#B7854D"/>
</linearGradient>
<linearGradient id="paint9_linear_6_631" x1="-10.9682" y1="131.408" x2="239.976" y2="131.408" gradientUnits="userSpaceOnUse">
<stop stop-color="#B7854D"/>
<stop offset="0.15" stop-color="#F5D98F"/>
<stop offset="0.3" stop-color="#FDF6B7"/>
<stop offset="0.52" stop-color="#F5D88E"/>
<stop offset="0.64" stop-color="#FCF5B7"/>
<stop offset="0.75" stop-color="#D4B067"/>
<stop offset="0.85" stop-color="#BD9149"/>
<stop offset="1" stop-color="#B7854D"/>
</linearGradient>
<linearGradient id="paint10_linear_6_631" x1="-10.9686" y1="129.662" x2="239.976" y2="129.662" gradientUnits="userSpaceOnUse">
<stop stop-color="#B7854D"/>
<stop offset="0.15" stop-color="#F5D98F"/>
<stop offset="0.3" stop-color="#FDF6B7"/>
<stop offset="0.52" stop-color="#F5D88E"/>
<stop offset="0.64" stop-color="#FCF5B7"/>
<stop offset="0.75" stop-color="#D4B067"/>
<stop offset="0.85" stop-color="#BD9149"/>
<stop offset="1" stop-color="#B7854D"/>
</linearGradient>
<linearGradient id="paint11_linear_6_631" x1="-10.9684" y1="131.392" x2="239.976" y2="131.392" gradientUnits="userSpaceOnUse">
<stop stop-color="#B7854D"/>
<stop offset="0.15" stop-color="#F5D98F"/>
<stop offset="0.3" stop-color="#FDF6B7"/>
<stop offset="0.52" stop-color="#F5D88E"/>
<stop offset="0.64" stop-color="#FCF5B7"/>
<stop offset="0.75" stop-color="#D4B067"/>
<stop offset="0.85" stop-color="#BD9149"/>
<stop offset="1" stop-color="#B7854D"/>
</linearGradient>
<linearGradient id="paint12_linear_6_631" x1="-10.9683" y1="131.408" x2="239.975" y2="131.408" gradientUnits="userSpaceOnUse">
<stop stop-color="#B7854D"/>
<stop offset="0.15" stop-color="#F5D98F"/>
<stop offset="0.3" stop-color="#FDF6B7"/>
<stop offset="0.52" stop-color="#F5D88E"/>
<stop offset="0.64" stop-color="#FCF5B7"/>
<stop offset="0.75" stop-color="#D4B067"/>
<stop offset="0.85" stop-color="#BD9149"/>
<stop offset="1" stop-color="#B7854D"/>
</linearGradient>
<linearGradient id="paint13_linear_6_631" x1="67.306" y1="6.41671" x2="163.268" y2="104.315" gradientUnits="userSpaceOnUse">
<stop stop-color="#B7854D"/>
<stop offset="0.15" stop-color="#F5D98F"/>
<stop offset="0.3" stop-color="#FDF6B7"/>
<stop offset="0.52" stop-color="#F5D88E"/>
<stop offset="0.64" stop-color="#FCF5B7"/>
<stop offset="0.75" stop-color="#D4B067"/>
<stop offset="0.85" stop-color="#BD9149"/>
<stop offset="1" stop-color="#B7854D"/>
</linearGradient>
<linearGradient id="paint14_linear_6_631" x1="115.094" y1="89.2618" x2="120.151" y2="89.2618" gradientUnits="userSpaceOnUse">
<stop stop-color="#7F1E10"/>
<stop offset="0.1" stop-color="#7F1E10"/>
<stop offset="0.18" stop-color="#821E10"/>
<stop offset="1" stop-color="#A21E11"/>
</linearGradient>
<linearGradient id="paint15_linear_6_631" x1="99.9152" y1="76.2745" x2="100.131" y2="76.2745" gradientUnits="userSpaceOnUse">
<stop stop-color="#7F1E10"/>
<stop offset="0.1" stop-color="#7F1E10"/>
<stop offset="0.18" stop-color="#821E10"/>
<stop offset="1" stop-color="#A21E11"/>
</linearGradient>
<linearGradient id="paint16_linear_6_631" x1="115.37" y1="84.4422" x2="117.982" y2="84.4422" gradientUnits="userSpaceOnUse">
<stop stop-color="#7F1E10"/>
<stop offset="0.1" stop-color="#7F1E10"/>
<stop offset="0.18" stop-color="#821E10"/>
<stop offset="1" stop-color="#A21E11"/>
</linearGradient>
<linearGradient id="paint17_linear_6_631" x1="117.831" y1="84.0842" x2="120.459" y2="84.0842" gradientUnits="userSpaceOnUse">
<stop stop-color="#7F1E10"/>
<stop offset="0.1" stop-color="#7F1E10"/>
<stop offset="0.18" stop-color="#821E10"/>
<stop offset="1" stop-color="#A21E11"/>
</linearGradient>
<linearGradient id="paint18_linear_6_631" x1="101.852" y1="89.2618" x2="106.909" y2="89.2618" gradientUnits="userSpaceOnUse">
<stop stop-color="#7F1E10"/>
<stop offset="0.1" stop-color="#7F1E10"/>
<stop offset="0.18" stop-color="#821E10"/>
<stop offset="1" stop-color="#A21E11"/>
</linearGradient>
<linearGradient id="paint19_linear_6_631" x1="85.9653" y1="76.0069" x2="86.1816" y2="76.0069" gradientUnits="userSpaceOnUse">
<stop stop-color="#7F1E10"/>
<stop offset="0.1" stop-color="#7F1E10"/>
<stop offset="0.18" stop-color="#821E10"/>
<stop offset="1" stop-color="#A21E11"/>
</linearGradient>
<linearGradient id="paint20_linear_6_631" x1="102.138" y1="84.4588" x2="104.75" y2="84.4588" gradientUnits="userSpaceOnUse">
<stop stop-color="#7F1E10"/>
<stop offset="0.1" stop-color="#7F1E10"/>
<stop offset="0.18" stop-color="#821E10"/>
<stop offset="1" stop-color="#A21E11"/>
</linearGradient>
<linearGradient id="paint21_linear_6_631" x1="104.598" y1="84.1009" x2="107.227" y2="84.1009" gradientUnits="userSpaceOnUse">
<stop stop-color="#7F1E10"/>
<stop offset="0.1" stop-color="#7F1E10"/>
<stop offset="0.18" stop-color="#821E10"/>
<stop offset="1" stop-color="#A21E11"/>
</linearGradient>
<linearGradient id="paint22_linear_6_631" x1="103.244" y1="83.9086" x2="118.133" y2="83.9086" gradientUnits="userSpaceOnUse">
<stop stop-color="#7F1E10"/>
<stop offset="0.1" stop-color="#7F1E10"/>
<stop offset="0.18" stop-color="#821E10"/>
<stop offset="1" stop-color="#A21E11"/>
</linearGradient>
<linearGradient id="paint23_linear_6_631" x1="84.6601" y1="52.7925" x2="138.209" y2="52.7925" gradientUnits="userSpaceOnUse">
<stop stop-color="#7F1E10"/>
<stop offset="0.1" stop-color="#7F1E10"/>
<stop offset="0.18" stop-color="#821E10"/>
<stop offset="1" stop-color="#A21E11"/>
</linearGradient>
<linearGradient id="paint24_linear_6_631" x1="82.5903" y1="40.0604" x2="120.535" y2="40.0604" gradientUnits="userSpaceOnUse">
<stop stop-color="#7F1E10"/>
<stop offset="0.1" stop-color="#7F1E10"/>
<stop offset="0.18" stop-color="#821E10"/>
<stop offset="1" stop-color="#A21E11"/>
</linearGradient>
<linearGradient id="paint25_linear_6_631" x1="110.402" y1="56.3905" x2="123.744" y2="56.3905" gradientUnits="userSpaceOnUse">
<stop stop-color="#7F1E10"/>
<stop offset="0.1" stop-color="#7F1E10"/>
<stop offset="0.18" stop-color="#821E10"/>
<stop offset="1" stop-color="#A21E11"/>
</linearGradient>
<linearGradient id="paint26_linear_6_631" x1="37.4548" y1="160.968" x2="205.804" y2="160.968" gradientUnits="userSpaceOnUse">
<stop stop-color="#B7854D"/>
<stop offset="0.15" stop-color="#F5D98F"/>
<stop offset="0.3" stop-color="#FDF6B7"/>
<stop offset="0.52" stop-color="#F5D88E"/>
<stop offset="0.64" stop-color="#FCF5B7"/>
<stop offset="0.75" stop-color="#D4B067"/>
<stop offset="0.85" stop-color="#BD9149"/>
<stop offset="1" stop-color="#B7854D"/>
</linearGradient>
<linearGradient id="paint27_linear_6_631" x1="37.4547" y1="161.001" x2="205.804" y2="161.001" gradientUnits="userSpaceOnUse">
<stop stop-color="#B7854D"/>
<stop offset="0.15" stop-color="#F5D98F"/>
<stop offset="0.3" stop-color="#FDF6B7"/>
<stop offset="0.52" stop-color="#F5D88E"/>
<stop offset="0.64" stop-color="#FCF5B7"/>
<stop offset="0.75" stop-color="#D4B067"/>
<stop offset="0.85" stop-color="#BD9149"/>
<stop offset="1" stop-color="#B7854D"/>
</linearGradient>
<linearGradient id="paint28_linear_6_631" x1="37.4547" y1="161.034" x2="205.804" y2="161.034" gradientUnits="userSpaceOnUse">
<stop stop-color="#B7854D"/>
<stop offset="0.15" stop-color="#F5D98F"/>
<stop offset="0.3" stop-color="#FDF6B7"/>
<stop offset="0.52" stop-color="#F5D88E"/>
<stop offset="0.64" stop-color="#FCF5B7"/>
<stop offset="0.75" stop-color="#D4B067"/>
<stop offset="0.85" stop-color="#BD9149"/>
<stop offset="1" stop-color="#B7854D"/>
</linearGradient>
<linearGradient id="paint29_linear_6_631" x1="37.4546" y1="161.001" x2="205.804" y2="161.001" gradientUnits="userSpaceOnUse">
<stop stop-color="#B7854D"/>
<stop offset="0.15" stop-color="#F5D98F"/>
<stop offset="0.3" stop-color="#FDF6B7"/>
<stop offset="0.52" stop-color="#F5D88E"/>
<stop offset="0.64" stop-color="#FCF5B7"/>
<stop offset="0.75" stop-color="#D4B067"/>
<stop offset="0.85" stop-color="#BD9149"/>
<stop offset="1" stop-color="#B7854D"/>
</linearGradient>
<linearGradient id="paint30_linear_6_631" x1="37.4546" y1="161.001" x2="205.804" y2="161.001" gradientUnits="userSpaceOnUse">
<stop stop-color="#B7854D"/>
<stop offset="0.15" stop-color="#F5D98F"/>
<stop offset="0.3" stop-color="#FDF6B7"/>
<stop offset="0.52" stop-color="#F5D88E"/>
<stop offset="0.64" stop-color="#FCF5B7"/>
<stop offset="0.75" stop-color="#D4B067"/>
<stop offset="0.85" stop-color="#BD9149"/>
<stop offset="1" stop-color="#B7854D"/>
</linearGradient>
<linearGradient id="paint31_linear_6_631" x1="37.4548" y1="160.968" x2="205.804" y2="160.968" gradientUnits="userSpaceOnUse">
<stop stop-color="#B7854D"/>
<stop offset="0.15" stop-color="#F5D98F"/>
<stop offset="0.3" stop-color="#FDF6B7"/>
<stop offset="0.52" stop-color="#F5D88E"/>
<stop offset="0.64" stop-color="#FCF5B7"/>
<stop offset="0.75" stop-color="#D4B067"/>
<stop offset="0.85" stop-color="#BD9149"/>
<stop offset="1" stop-color="#B7854D"/>
</linearGradient>
<linearGradient id="paint32_linear_6_631" x1="37.4547" y1="161.001" x2="205.804" y2="161.001" gradientUnits="userSpaceOnUse">
<stop stop-color="#B7854D"/>
<stop offset="0.15" stop-color="#F5D98F"/>
<stop offset="0.3" stop-color="#FDF6B7"/>
<stop offset="0.52" stop-color="#F5D88E"/>
<stop offset="0.64" stop-color="#FCF5B7"/>
<stop offset="0.75" stop-color="#D4B067"/>
<stop offset="0.85" stop-color="#BD9149"/>
<stop offset="1" stop-color="#B7854D"/>
</linearGradient>
<linearGradient id="paint33_linear_6_631" x1="37.4546" y1="161.001" x2="205.804" y2="161.001" gradientUnits="userSpaceOnUse">
<stop stop-color="#B7854D"/>
<stop offset="0.15" stop-color="#F5D98F"/>
<stop offset="0.3" stop-color="#FDF6B7"/>
<stop offset="0.52" stop-color="#F5D88E"/>
<stop offset="0.64" stop-color="#FCF5B7"/>
<stop offset="0.75" stop-color="#D4B067"/>
<stop offset="0.85" stop-color="#BD9149"/>
<stop offset="1" stop-color="#B7854D"/>
</linearGradient>
<linearGradient id="paint34_linear_6_631" x1="37.4545" y1="161.001" x2="205.804" y2="161.001" gradientUnits="userSpaceOnUse">
<stop stop-color="#B7854D"/>
<stop offset="0.15" stop-color="#F5D98F"/>
<stop offset="0.3" stop-color="#FDF6B7"/>
<stop offset="0.52" stop-color="#F5D88E"/>
<stop offset="0.64" stop-color="#FCF5B7"/>
<stop offset="0.75" stop-color="#D4B067"/>
<stop offset="0.85" stop-color="#BD9149"/>
<stop offset="1" stop-color="#B7854D"/>
</linearGradient>
</defs>
</svg>
